<?xml version="1.0" encoding="UTF-8" standalone="no"?>
<!DOCTYPE svg PUBLIC "-//W3C//DTD SVG 1.1//EN" "http://www.w3.org/Graphics/SVG/1.1/DTD/svg11.dtd">
<svg xmlns="http://www.w3.org/2000/svg" version="1.1" viewBox="0.00 0.00 1200.00 1200.00">
<g stroke-width="2.00" fill="none" stroke-linecap="butt">
<path stroke="#a38158" vector-effect="non-scaling-stroke" d="
  M 456.98 510.09
  L 405.94 473.48"
/>
<path stroke="#947650" vector-effect="non-scaling-stroke" d="
  M 297.57 714.62
  Q 286.35 707.14 275.90 698.41"
/>
<path stroke="#a38158" vector-effect="non-scaling-stroke" d="
  M 447.10 611.51
  L 427.40 591.70"
/>
<path stroke="#947650" vector-effect="non-scaling-stroke" d="
  M 380.81 726.28
  Q 371.42 716.00 360.44 707.48"
/>
<path stroke="#a38158" vector-effect="non-scaling-stroke" d="
  M 575.10 617.49
  C 560.67 600.40 545.72 583.77 532.96 565.42"
/>
<path stroke="#947650" vector-effect="non-scaling-stroke" d="
  M 428.21 799.99
  L 413.90 771.39"
/>
<path stroke="#a38158" vector-effect="non-scaling-stroke" d="
  M 548.21 749.00
  L 529.98 726.24"
/>
<path stroke="#a38158" vector-effect="non-scaling-stroke" d="
  M 585.09 840.74
  L 571.94 810.01"
/>
<path stroke="#a38158" vector-effect="non-scaling-stroke" d="
  M 597.54 1141.50
  Q 594.62 1156.84 588.18 1171.26"
/>
</g>
<path fill="#ab875c" d="
  M 456.98 510.09
  L 405.94 473.48
  L 667.93 20.33
  A 0.29 0.29 0.0 0 1 668.43 20.33
  L 704.35 82.53
  A 0.49 0.48 46.1 0 1 704.35 83.00
  L 456.98 510.09
  Z"
/>
<path fill="#ab875c" d="
  M 447.10 611.51
  L 427.40 591.70
  L 712.82 98.20
  A 0.25 0.25 0.0 0 1 713.25 98.20
  L 749.13 160.34
  A 0.38 0.38 0.0 0 1 749.13 160.72
  L 482.25 622.96
  A 0.41 0.41 0.0 0 1 481.54 622.96
  L 461.25 587.81
  A 0.27 0.27 0.0 0 0 460.79 587.81
  L 447.10 611.51
  Z"
/>
<path fill="#ab875c" d="
  M 575.10 617.49
  C 560.67 600.40 545.72 583.77 532.96 565.42
  L 757.88 176.31
  A 0.37 0.36 44.7 0 1 758.51 176.31
  L 794.16 238.06
  A 0.37 0.37 0.0 0 1 794.16 238.42
  L 575.10 617.49
  Z"
/>
<path fill="#ab875c" d="
  M 548.21 749.00
  L 529.98 726.24
  L 803.20 253.89
  A 0.23 0.23 0.0 0 1 803.60 253.89
  L 839.11 315.38
  A 0.74 0.74 0.0 0 1 839.11 316.10
  L 572.11 778.56
  A 0.28 0.28 0.0 0 1 571.63 778.56
  L 551.63 743.92
  A 0.28 0.28 0.0 0 0 551.15 743.92
  L 548.21 749.00
  Z"
/>
<path fill="#ab875c" d="
  M 585.09 840.74
  L 571.94 810.01
  L 848.35 331.65
  A 0.25 0.25 0.0 0 1 848.78 331.65
  L 884.58 393.65
  A 1.03 1.03 0.0 0 1 884.58 394.67
  L 616.89 856.66
  A 0.22 0.21 44.6 0 1 616.52 856.66
  L 596.38 821.77
  A 0.19 0.19 0.0 0 0 596.06 821.77
  L 585.09 840.74
  Z"
/>
<path fill="#ab875c" d="
  M 929.54 472.08
  L 662.37 934.85
  A 0.30 0.30 0.0 0 1 661.85 934.85
  L 641.71 899.96
  A 0.30 0.30 0.0 0 0 641.19 899.96
  L 618.53 939.22
  A 0.30 0.30 0.0 0 1 618.27 939.37
  L 587.72 939.37
  A 0.30 0.30 0.0 0 1 587.46 938.92
  L 893.10 409.55
  A 0.30 0.30 0.0 0 1 893.62 409.55
  L 929.54 471.78
  A 0.30 0.30 0.0 0 1 929.54 472.08
  Z"
/>
<path fill="#9b7b54" d="
  M 405.94 473.48
  L 456.98 510.09
  L 436.44 545.47
  A 0.12 0.12 0.0 0 1 436.23 545.47
  L 416.08 510.57
  A 0.14 0.14 0.0 0 0 415.84 510.57
  L 297.57 714.62
  Q 286.35 707.14 275.90 698.41
  L 405.94 473.48
  Z"
/>
<path fill="#ab875c" d="
  M 749.08 939.39
  L 677.00 939.39
  A 0.30 0.30 0.0 0 1 676.74 938.94
  L 938.15 487.78
  A 0.30 0.30 0.0 0 1 938.67 487.78
  L 974.64 550.10
  A 0.30 0.30 0.0 0 1 974.64 550.40
  L 749.34 939.24
  A 0.30 0.30 0.0 0 1 749.08 939.39
  Z"
/>
<path fill="#9b7b54" d="
  M 532.96 565.42
  C 545.72 583.77 560.67 600.40 575.10 617.49
  L 526.91 700.83
  A 0.35 0.35 0.0 0 1 526.30 700.83
  L 506.24 666.07
  A 0.39 0.39 0.0 0 0 505.56 666.07
  L 428.21 799.99
  L 413.90 771.39
  L 532.96 565.42
  Z"
/>
<path fill="#ab875c" d="
  M 984.10 565.81
  L 1019.65 627.39
  A 0.31 0.31 0.0 0 1 1019.65 627.71
  L 839.13 939.26
  A 0.31 0.31 0.0 0 1 838.86 939.41
  L 767.64 939.41
  A 0.31 0.31 0.0 0 1 767.37 938.94
  L 983.56 565.81
  A 0.31 0.31 0.0 0 1 984.10 565.81
  Z"
/>
<path fill="#9b7b54" d="
  M 427.40 591.70
  L 447.10 611.51
  L 380.81 726.28
  Q 371.42 716.00 360.44 707.48
  L 427.40 591.70
  Z"
/>
<path fill="#ab875c" d="
  M 929.47 939.37
  L 857.66 939.37
  A 0.33 0.33 0.0 0 1 857.38 938.87
  L 1028.52 643.49
  A 0.33 0.33 0.0 0 1 1029.10 643.49
  L 1064.93 705.57
  A 0.33 0.33 0.0 0 1 1064.93 705.91
  L 929.76 939.21
  A 0.33 0.33 0.0 0 1 929.47 939.37
  Z"
/>
<path fill="#8d704c" d="
  M 275.90 698.41
  Q 286.35 707.14 297.57 714.62
  L 167.45 939.07
  A 0.60 0.59 14.5 0 1 166.93 939.37
  L 137.00 939.37
  A 0.21 0.21 0.0 0 1 136.82 939.05
  L 275.90 698.41
  Z"
/>
<path fill="#8d704c" d="
  M 360.44 707.48
  Q 371.42 716.00 380.81 726.28
  L 257.76 939.24
  A 0.27 0.25 12.9 0 1 257.53 939.37
  L 226.75 939.37
  A 0.23 0.23 0.0 0 1 226.55 939.02
  L 360.44 707.48
  Z"
/>
<path fill="#ab875c" d="
  M 1074.11 721.11
  L 1109.88 783.07
  A 0.32 0.32 0.0 0 1 1109.88 783.39
  L 1019.91 939.21
  A 0.32 0.32 0.0 0 1 1019.64 939.37
  L 948.09 939.37
  A 0.32 0.32 0.0 0 1 947.82 938.89
  L 1073.55 721.11
  A 0.32 0.32 0.0 0 1 1074.11 721.11
  Z"
/>
<path fill="#9b7b54" d="
  M 548.21 749.00
  L 438.29 939.14
  A 0.48 0.48 0.0 0 1 437.88 939.37
  L 407.12 939.37
  A 0.23 0.22 14.6 0 1 406.92 939.04
  L 529.98 726.24
  L 548.21 749.00
  Z"
/>
<path fill="#8d704c" d="
  M 413.90 771.39
  L 428.21 799.99
  L 347.82 939.12
  A 0.52 0.51 -74.4 0 1 347.38 939.37
  L 317.22 939.37
  A 0.22 0.22 0.0 0 1 317.03 939.04
  L 413.90 771.39
  Z"
/>
<path fill="#ab875c" d="
  M 1109.81 939.38
  L 1037.91 939.38
  A 0.31 0.31 0.0 0 1 1037.64 938.92
  L 1118.43 798.97
  A 0.31 0.31 0.0 0 1 1118.97 798.97
  L 1154.92 861.24
  A 0.31 0.31 0.0 0 1 1154.92 861.55
  L 1110.08 939.22
  A 0.31 0.31 0.0 0 1 1109.81 939.38
  Z"
/>
<path fill="#9b7b54" d="
  M 571.94 810.01
  L 585.09 840.74
  L 528.32 938.93
  A 0.90 0.90 0.0 0 1 527.54 939.38
  L 497.61 939.38
  A 0.24 0.23 14.6 0 1 497.40 939.03
  L 571.94 810.01
  Z"
/>
<path fill="#ab875c" d="
  M 1128.28 939.34
  L 1163.38 878.30
  A 0.31 0.31 0.0 0 1 1163.92 878.30
  L 1198.60 939.59
  A 0.31 0.31 0.0 0 1 1198.33 940.05
  L 1128.55 939.81
  A 0.31 0.31 0.0 0 1 1128.28 939.34
  Z"
/>
<path fill="#ab875c" d="
  M 1026.8598 1077.9220
  A 102.01 101.88 -0.1 0 1 925.0278 1179.9798
  A 102.01 101.88 -0.1 0 1 822.8402 1078.2780
  A 102.01 101.88 -0.1 0 1 924.6722 976.2202
  A 102.01 101.88 -0.1 0 1 1026.8598 1077.9220
  Z
  M 841.76 1078.20
  C 841.81 1123.73 879.61 1160.43 924.87 1160.38
  C 970.13 1160.32 1007.85 1123.53 1007.79 1078.01
  C 1007.74 1032.48 969.94 995.78 924.68 995.83
  C 879.42 995.89 841.70 1032.68 841.76 1078.20
  Z"
/>
<path fill="#ab875c" d="
  M 721.73 1120.23
  Q 722.37 1139.72 737.56 1150.50
  C 763.17 1168.67 799.25 1148.85 796.58 1117.00
  C 795.35 1102.31 784.71 1089.91 771.14 1085.36
  Q 756.70 1080.52 741.77 1075.72
  C 726.73 1070.89 715.09 1057.05 710.76 1042.06
  C 701.38 1009.62 726.20 977.35 759.73 977.37
  Q 781.08 977.37 796.30 992.61
  Q 810.51 1006.84 811.05 1028.96
  A 0.70 0.70 0.0 0 1 810.35 1029.68
  L 792.24 1029.68
  A 0.39 0.38 -82.5 0 1 791.87 1029.19
  Q 791.93 1029.00 791.68 1025.70
  C 789.56 997.52 754.29 986.28 735.76 1007.27
  C 722.96 1021.77 726.24 1043.89 742.10 1054.95
  Q 746.30 1057.88 756.90 1061.01
  Q 773.72 1065.98 777.16 1067.11
  C 803.22 1075.65 819.04 1101.60 815.18 1128.72
  C 810.25 1163.43 773.55 1184.96 740.18 1173.16
  C 717.62 1165.19 702.86 1144.49 702.51 1120.52
  A 0.64 0.63 89.6 0 1 703.14 1119.87
  L 721.35 1119.87
  A 0.38 0.38 0.0 0 1 721.73 1120.23
  Z"
/>
<path fill="#8d704c" d="
  M 115.26 980.36
  L 152.91 980.36
  A 0.34 0.34 0.0 0 1 153.25 980.70
  L 153.25 1175.54
  A 0.34 0.34 0.0 0 1 152.91 1175.88
  L 134.52 1175.88
  A 0.34 0.34 0.0 0 1 134.18 1175.54
  L 134.18 1110.97
  A 0.34 0.34 0.0 0 0 133.84 1110.63
  L 69.62 1110.63
  A 0.34 0.34 0.0 0 0 69.33 1110.80
  L 31.09 1175.71
  A 0.34 0.34 0.0 0 1 30.80 1175.88
  L 0.51 1175.88
  A 0.34 0.34 0.0 0 1 0.22 1175.37
  L 114.97 980.53
  A 0.34 0.34 0.0 0 1 115.26 980.36
  Z
  M 134.18 1001.48
  A 0.20 0.19 -30.2 0 0 133.82 1001.39
  L 80.91 1091.23
  A 0.23 0.22 -74.6 0 0 81.10 1091.57
  L 133.55 1091.57
  A 0.63 0.62 0.0 0 0 134.18 1090.95
  L 134.18 1001.48
  Z"
/>
<path fill="#8d704c" d="
  M 169.68 980.82
  A 0.54 0.54 0.0 0 1 170.22 980.28
  L 227.10 980.28
  A 98.56 97.53 -0.0 0 1 325.66 1077.81
  L 325.66 1078.43
  A 98.56 97.53 -0.0 0 1 227.10 1175.96
  L 170.22 1175.96
  A 0.54 0.54 0.0 0 1 169.68 1175.42
  L 169.68 980.82
  Z
  M 189.57 1000.58
  L 189.57 1155.60
  A 0.46 0.46 0.0 0 0 190.03 1156.06
  L 227.56 1156.06
  A 78.81 77.86 -0.0 0 0 306.37 1078.20
  L 306.37 1077.98
  A 78.81 77.86 0.0 0 0 227.56 1000.12
  L 190.03 1000.12
  A 0.46 0.46 0.0 0 0 189.57 1000.58
  Z"
/>
<path fill="#8d704c" d="
  M 396.07 980.37
  Q 400.67 980.37 405.19 980.52
  A 0.90 0.90 0.0 0 1 405.99 981.08
  L 484.19 1175.56
  A 0.26 0.26 0.0 0 1 483.95 1175.92
  L 464.27 1175.92
  A 0.88 0.87 79.1 0 1 463.46 1175.37
  L 437.56 1110.95
  A 0.47 0.47 0.0 0 0 437.13 1110.66
  Q 435.72 1110.65 396.00 1110.63
  Q 356.29 1110.61 354.88 1110.62
  A 0.47 0.47 0.0 0 0 354.45 1110.91
  L 328.48 1175.30
  A 0.88 0.87 -79.0 0 1 327.67 1175.85
  L 307.99 1175.83
  A 0.26 0.26 0.0 0 1 307.75 1175.47
  L 386.15 981.07
  A 0.90 0.90 0.0 0 1 386.95 980.51
  Q 391.46 980.37 396.07 980.37
  Z
  M 362.15 1091.16
  A 0.30 0.30 0.0 0 0 362.43 1091.57
  L 429.09 1091.57
  A 0.30 0.30 0.0 0 0 429.37 1091.16
  L 396.04 1008.95
  A 0.30 0.30 0.0 0 0 395.48 1008.95
  L 362.15 1091.16
  Z"
/>
<path fill="#9b7b54" d="
  M 597.54 1141.50
  Q 594.62 1156.84 588.18 1171.26
  L 517.57 1010.51
  A 0.26 0.26 0.0 0 0 517.07 1010.61
  L 517.07 1175.28
  A 0.60 0.60 0.0 0 1 516.47 1175.88
  L 497.88 1175.88
  A 0.64 0.63 -0.0 0 1 497.24 1175.25
  L 497.24 980.73
  A 0.36 0.36 0.0 0 1 497.60 980.37
  L 524.78 980.37
  A 0.42 0.41 -12.0 0 1 525.16 980.61
  L 596.51 1142.22
  A 0.41 0.41 0.0 0 0 597.26 1142.21
  L 597.54 1141.50
  Z"
/>
<path fill="#ab875c" d="
  M 588.18 1171.26
  Q 594.62 1156.84 597.54 1141.50
  L 668.00 980.69
  A 0.54 0.53 11.8 0 1 668.49 980.37
  L 695.31 980.37
  A 0.62 0.62 0.0 0 1 695.93 980.99
  L 695.93 1175.35
  A 0.53 0.53 0.0 0 1 695.40 1175.88
  L 677.01 1175.88
  A 0.34 0.33 90.0 0 1 676.68 1175.54
  L 676.68 1010.34
  A 0.19 0.19 0.0 0 0 676.32 1010.26
  L 603.86 1175.57
  A 0.53 0.53 0.0 0 1 603.38 1175.88
  L 590.79 1175.88
  A 0.87 0.85 77.6 0 1 590.01 1175.37
  L 588.18 1171.26
  Z"
/>
<path fill="#ab875c" d="
  M 1200.00 980.26
  L 1200.00 1175.83
  L 1177.68 1175.88
  A 0.97 0.95 72.3 0 1 1176.89 1175.46
  L 1064.33 1006.40
  A 0.22 0.22 0.0 0 0 1063.93 1006.52
  L 1063.93 1175.36
  A 0.52 0.52 0.0 0 1 1063.41 1175.88
  L 1045.33 1175.88
  A 0.45 0.45 0.0 0 1 1044.88 1175.43
  L 1044.88 980.71
  A 0.34 0.34 0.0 0 1 1045.22 980.37
  L 1070.25 980.37
  A 1.01 0.99 72.8 0 1 1071.08 980.82
  L 1180.36 1146.17
  A 0.21 0.21 0.0 0 0 1180.75 1146.06
  L 1180.75 980.81
  A 0.47 0.46 -90.0 0 1 1181.21 980.34
  L 1200.00 980.26
  Z"
/>
</svg>
