<?xml version="1.0" encoding="UTF-8" standalone="no"?>
<!DOCTYPE svg PUBLIC "-//W3C//DTD SVG 1.1//EN" "http://www.w3.org/Graphics/SVG/1.1/DTD/svg11.dtd">
<svg xmlns="http://www.w3.org/2000/svg" version="1.1" viewBox="0.00 0.00 4607.00 673.00">
<path fill="#cf2037" d="
  M 2332.64 383.03
  A 0.25 0.25 0.0 0 0 2333.08 383.00
  Q 2346.75 350.55 2349.19 316.34
  A 0.37 0.37 0.0 0 1 2349.56 316.00
  L 2438.39 316.00
  A 0.53 0.53 0.0 0 1 2438.92 316.55
  C 2436.55 372.29 2419.70 427.23 2391.46 475.59
  A 0.89 0.89 0.0 0 0 2391.47 476.52
  L 2462.09 588.54
  A 0.30 0.30 0.0 0 1 2461.84 589.00
  L 2341.91 589.00
  A 1.03 1.03 0.0 0 1 2341.08 588.58
  L 2322.91 563.62
  A 0.57 0.57 0.0 0 0 2322.11 563.50
  C 2295.35 582.81 2266.44 595.40 2233.53 599.74
  Q 2202.29 603.87 2172.36 598.33
  Q 2133.62 591.16 2105.46 566.52
  Q 2078.26 542.71 2065.92 509.60
  C 2056.45 484.18 2054.14 456.31 2056.54 429.76
  Q 2060.06 390.85 2078.69 358.70
  Q 2087.76 343.06 2100.58 328.33
  Q 2121.43 304.39 2147.54 284.65
  A 0.87 0.86 54.6 0 0 2147.73 283.47
  C 2124.08 249.25 2107.00 207.81 2111.10 165.53
  C 2113.85 137.22 2126.53 112.99 2147.85 94.00
  C 2168.97 75.18 2195.42 64.95 2223.75 62.46
  C 2262.98 59.01 2304.64 66.27 2334.38 93.83
  C 2358.17 115.89 2367.51 144.76 2366.40 177.45
  Q 2365.27 211.10 2348.48 239.37
  C 2333.43 264.72 2308.61 285.90 2282.75 301.60
  A 0.42 0.40 58.8 0 0 2282.62 302.17
  L 2332.64 383.03
  Z
  M 2230.49 228.28
  C 2248.48 216.05 2265.55 199.15 2268.06 176.30
  Q 2269.08 166.94 2267.10 160.67
  Q 2261.53 143.12 2242.89 139.65
  C 2223.47 136.03 2205.73 147.27 2205.29 168.08
  C 2204.80 191.04 2216.23 210.75 2230.05 228.21
  A 0.33 0.33 0.0 0 0 2230.49 228.28
  Z
  M 2196.46 365.96
  C 2173.22 388.14 2159.04 415.92 2162.73 448.69
  C 2166.22 479.58 2186.95 503.82 2218.82 505.90
  C 2238.67 507.19 2256.21 496.28 2271.30 484.57
  A 0.43 0.41 55.1 0 0 2271.39 484.01
  L 2197.02 366.03
  A 0.37 0.36 51.9 0 0 2196.46 365.96
  Z"
/>
<path fill="#000000" d="
  M 505.00 588.66
  L 489.98 490.86
  A 0.41 0.41 0.0 0 0 489.58 490.51
  L 396.13 490.51
  A 0.41 0.41 0.0 0 0 395.73 490.86
  L 380.83 588.66
  A 0.41 0.41 0.0 0 1 380.43 589.01
  L 259.81 589.01
  A 0.41 0.41 0.0 0 1 259.41 588.51
  L 371.39 75.06
  A 0.41 0.41 0.0 0 1 371.79 74.74
  L 514.31 74.74
  A 0.41 0.41 0.0 0 1 514.71 75.06
  L 625.35 588.51
  A 0.41 0.41 0.0 0 1 624.95 589.01
  L 505.40 589.01
  A 0.41 0.41 0.0 0 1 505.00 588.66
  Z
  M 442.57 397.46
  Q 446.50 397.46 476.44 397.52
  A 0.48 0.48 0.0 0 0 476.91 396.97
  L 442.90 175.32
  A 0.17 0.14 8.9 0 0 442.79 175.19
  Q 442.75 175.18 442.71 175.18
  Q 442.68 175.18 442.64 175.19
  A 0.17 0.14 -8.8 0 0 442.53 175.32
  L 408.22 396.92
  A 0.48 0.48 0.0 0 0 408.70 397.48
  Q 438.63 397.45 442.57 397.46
  Z"
/>
<path fill="#000000" d="
  M 793.26 485.00
  L 936.75 485.00
  A 0.50 0.50 0.0 0 1 937.25 485.50
  L 937.25 588.50
  A 0.50 0.50 0.0 0 1 936.75 589.00
  L 672.75 589.00
  A 0.50 0.50 0.0 0 1 672.25 588.50
  L 672.25 75.25
  A 0.50 0.50 0.0 0 1 672.75 74.75
  L 792.26 74.75
  A 0.50 0.50 0.0 0 1 792.76 75.25
  L 792.76 484.50
  A 0.50 0.50 0.0 0 0 793.26 485.00
  Z"
/>
<path fill="#000000" d="
  M 1110.10 74.76
  A 0.41 0.40 -90.0 0 1 1110.50 75.17
  L 1110.51 484.59
  A 0.40 0.39 -90.0 0 0 1110.90 484.99
  L 1254.41 484.99
  A 0.59 0.58 -90.0 0 1 1254.99 485.58
  L 1254.99 588.40
  A 0.59 0.59 0.0 0 1 1254.40 588.99
  L 990.54 588.99
  A 0.54 0.54 0.0 0 1 990.00 588.45
  L 990.00 75.32
  A 0.57 0.56 0.0 0 1 990.57 74.76
  L 1110.10 74.76
  Z"
/>
<path fill="#000000" d="
  M 1427.75 483.56
  A 0.68 0.68 0.0 0 0 1428.43 484.24
  L 1587.59 484.24
  A 0.40 0.40 0.0 0 1 1587.99 484.64
  L 1587.99 588.14
  A 0.86 0.86 0.0 0 1 1587.13 589.00
  L 1308.54 589.00
  A 0.56 0.55 90.0 0 1 1307.99 588.44
  L 1307.98 75.06
  A 0.32 0.31 -0.0 0 1 1308.30 74.75
  L 1587.63 74.75
  A 0.35 0.35 0.0 0 1 1587.98 75.10
  L 1587.99 174.35
  A 0.41 0.41 0.0 0 1 1587.58 174.76
  L 1428.05 174.76
  A 0.30 0.29 -0.0 0 0 1427.75 175.05
  L 1427.75 268.60
  A 0.40 0.39 90.0 0 0 1428.14 269.00
  L 1575.09 269.00
  A 0.53 0.53 0.0 0 1 1575.62 269.53
  L 1575.64 371.96
  A 0.58 0.58 0.0 0 1 1575.06 372.54
  L 1428.31 372.53
  A 0.56 0.56 0.0 0 0 1427.75 373.09
  L 1427.75 483.56
  Z"
/>
<path fill="#000000" d="
  M 1886.58 389.66
  Q 1886.94 389.30 1886.82 387.75
  Q 1880.39 302.82 1877.24 231.25
  C 1876.30 209.68 1875.46 182.14 1875.46 157.51
  Q 1875.45 119.78 1875.47 78.75
  Q 1875.47 76.61 1875.65 75.29
  A 0.62 0.61 3.7 0 1 1876.26 74.76
  L 1982.45 74.76
  A 0.31 0.31 0.0 0 1 1982.76 75.07
  L 1982.76 588.47
  A 0.53 0.53 0.0 0 1 1982.23 589.00
  L 1857.43 589.00
  A 0.52 0.52 0.0 0 1 1856.93 588.63
  L 1757.63 265.64
  A 0.20 0.19 -56.8 0 0 1757.25 265.72
  C 1763.68 328.16 1768.23 391.32 1769.89 452.78
  Q 1770.04 458.35 1770.52 477.71
  Q 1770.52 477.86 1770.52 479.25
  Q 1770.47 517.01 1770.52 588.40
  A 0.60 0.59 90.0 0 1 1769.93 589.00
  L 1662.50 589.00
  A 0.50 0.50 0.0 0 1 1662.00 588.50
  L 1662.00 75.06
  A 0.31 0.31 0.0 0 1 1662.31 74.75
  L 1787.21 74.75
  A 0.65 0.65 0.0 0 1 1787.83 75.21
  L 1886.44 389.63
  A 0.09 0.08 -31.6 0 0 1886.58 389.66
  Z
  M 1757.40 265.11
  L 1757.57 264.93
  A 0.10 0.06 -49.3 0 0 1757.59 264.80
  Q 1757.55 264.78 1757.55 264.72
  A 0.14 0.08 -56.1 0 0 1757.34 264.82
  Q 1757.33 264.85 1757.37 265.11
  A 0.02 0.02 0.0 0 0 1757.40 265.11
  Z"
/>
<path fill="#000000" d="
  M 2640.35 268.85
  Q 2640.40 268.87 2640.61 268.99
  A 0.05 0.03 -13.3 0 0 2640.64 269.00
  L 2735.42 269.00
  A 0.82 0.82 0.0 0 0 2736.24 268.18
  L 2736.24 75.38
  A 0.62 0.62 0.0 0 1 2736.86 74.76
  L 2853.61 74.76
  A 0.38 0.38 0.0 0 1 2853.99 75.14
  L 2853.99 588.38
  A 0.61 0.61 0.0 0 1 2853.38 588.99
  L 2736.88 588.99
  A 0.64 0.64 0.0 0 1 2736.24 588.35
  L 2736.24 376.32
  A 0.56 0.56 0.0 0 0 2735.68 375.76
  L 2640.48 375.76
  A 0.48 0.48 0.0 0 0 2640.00 376.24
  L 2640.00 588.18
  A 0.81 0.81 0.0 0 1 2639.19 588.99
  L 2519.80 588.99
  A 0.32 0.32 0.0 0 1 2519.48 588.67
  L 2519.48 75.31
  A 0.55 0.55 0.0 0 1 2520.03 74.76
  L 2639.60 74.76
  A 0.40 0.40 0.0 0 1 2640.00 75.16
  L 2640.00 268.40
  A 0.47 0.46 7.2 0 0 2640.35 268.85
  Z"
/>
<path fill="#000000" d="
  M 3217.01 484.72
  L 3217.01 588.52
  A 0.48 0.48 0.0 0 1 3216.53 589.00
  L 2937.49 589.00
  A 0.48 0.48 0.0 0 1 2937.01 588.52
  L 2937.01 75.23
  A 0.48 0.48 0.0 0 1 2937.49 74.75
  L 3216.53 74.75
  A 0.48 0.48 0.0 0 1 3217.01 75.23
  L 3217.01 174.28
  A 0.48 0.48 0.0 0 1 3216.53 174.76
  L 3057.25 174.76
  A 0.48 0.48 0.0 0 0 3056.77 175.24
  L 3056.77 268.52
  A 0.48 0.48 0.0 0 0 3057.25 269.00
  L 3204.17 269.00
  A 0.48 0.48 0.0 0 1 3204.65 269.48
  L 3204.65 372.06
  A 0.48 0.48 0.0 0 1 3204.17 372.54
  L 3057.25 372.54
  A 0.48 0.48 0.0 0 0 3056.77 373.02
  L 3056.77 483.76
  A 0.48 0.48 0.0 0 0 3057.25 484.24
  L 3216.53 484.24
  A 0.48 0.48 0.0 0 1 3217.01 484.72
  Z"
/>
<path fill="#000000" d="
  M 3620.27 588.59
  A 0.33 0.32 -5.8 0 1 3619.95 588.98
  L 3500.28 588.98
  A 0.43 0.43 0.0 0 1 3499.85 588.61
  L 3484.92 490.80
  A 0.38 0.36 85.4 0 0 3484.56 490.48
  L 3391.18 490.49
  A 0.57 0.56 4.1 0 0 3390.62 490.97
  L 3375.79 588.38
  A 0.71 0.70 4.2 0 1 3375.09 588.98
  L 3254.72 588.98
  A 0.39 0.39 0.0 0 1 3254.34 588.50
  L 3366.28 75.23
  A 0.61 0.59 5.9 0 1 3366.87 74.76
  L 3509.19 74.76
  A 0.45 0.44 83.4 0 1 3509.62 75.11
  L 3620.27 588.59
  Z
  M 3437.49 397.45
  Q 3441.42 397.46 3471.30 397.52
  A 0.48 0.48 0.0 0 0 3471.77 396.97
  L 3437.79 175.72
  A 0.17 0.14 8.9 0 0 3437.68 175.60
  Q 3437.64 175.58 3437.60 175.58
  Q 3437.57 175.58 3437.53 175.60
  A 0.17 0.14 -8.8 0 0 3437.42 175.72
  L 3403.21 396.93
  A 0.48 0.48 0.0 0 0 3403.68 397.48
  Q 3433.56 397.45 3437.49 397.45
  Z"
/>
<path fill="#000000" d="
  M 3927.03 174.76
  L 3826.73 174.76
  A 0.48 0.48 0.0 0 0 3826.25 175.24
  L 3826.25 588.52
  A 0.48 0.48 0.0 0 1 3825.77 589.00
  L 3705.94 589.00
  A 0.48 0.48 0.0 0 1 3705.46 588.52
  L 3705.46 175.24
  A 0.48 0.48 0.0 0 0 3704.98 174.76
  L 3609.95 174.76
  A 0.48 0.48 0.0 0 1 3609.47 174.28
  L 3609.47 75.23
  A 0.48 0.48 0.0 0 1 3609.95 74.75
  L 3927.03 74.75
  A 0.48 0.48 0.0 0 1 3927.51 75.23
  L 3927.51 174.28
  A 0.48 0.48 0.0 0 1 3927.03 174.76
  Z"
/>
<path fill="#000000" d="
  M 4097.11 268.85
  Q 4097.16 268.87 4097.37 268.99
  A 0.05 0.03 -13.3 0 0 4097.40 269.00
  L 4192.18 269.00
  A 0.82 0.82 0.0 0 0 4193.00 268.18
  L 4193.00 75.37
  A 0.62 0.62 0.0 0 1 4193.62 74.75
  L 4310.38 74.75
  A 0.38 0.38 0.0 0 1 4310.76 75.13
  L 4310.76 588.39
  A 0.61 0.61 0.0 0 1 4310.15 589.00
  L 4193.65 589.00
  A 0.64 0.64 0.0 0 1 4193.01 588.36
  L 4193.01 376.32
  A 0.56 0.56 0.0 0 0 4192.45 375.76
  L 4097.24 375.76
  A 0.48 0.48 0.0 0 0 4096.76 376.24
  L 4096.76 588.19
  A 0.81 0.81 0.0 0 1 4095.95 589.00
  L 3976.56 589.00
  A 0.32 0.32 0.0 0 1 3976.24 588.68
  L 3976.23 75.30
  A 0.55 0.55 0.0 0 1 3976.78 74.75
  L 4096.36 74.75
  A 0.40 0.40 0.0 0 1 4096.76 75.15
  L 4096.76 268.40
  A 0.47 0.46 7.2 0 0 4097.11 268.85
  Z"
/>
</svg>
