<?xml version="1.0" encoding="UTF-8" standalone="no"?>
<!DOCTYPE svg PUBLIC "-//W3C//DTD SVG 1.1//EN" "http://www.w3.org/Graphics/SVG/1.1/DTD/svg11.dtd">
<svg xmlns="http://www.w3.org/2000/svg" version="1.1" viewBox="0.00 0.00 792.00 392.00">
<g stroke-width="2.00" fill="none" stroke-linecap="butt">
<path stroke="#918f90" vector-effect="non-scaling-stroke" d="
  M 313.1870 70.7992
  A 16.19 14.90 -1.1 0 0 296.7140 56.2127
  A 16.19 14.90 -1.1 0 0 280.8130 71.4208
  A 16.19 14.90 -1.1 0 0 297.2860 86.0073
  A 16.19 14.90 -1.1 0 0 313.1870 70.7992"
/>
<path stroke="#918f90" vector-effect="non-scaling-stroke" d="
  M 359.00 64.48
  A 0.57 0.57 0.0 0 0 358.43 63.91
  L 333.57 63.91
  A 0.57 0.57 0.0 0 0 333.00 64.48
  L 333.00 187.50
  A 0.57 0.57 0.0 0 0 333.57 188.07
  L 358.43 188.07
  A 0.57 0.57 0.0 0 0 359.00 187.50
  L 359.00 64.48"
/>
<path stroke="#918f90" vector-effect="non-scaling-stroke" d="
  M 50.81 71.26
  L 50.81 187.70
  A 0.27 0.27 0.0 0 0 51.08 187.97
  L 107.02 187.97
  A 58.93 56.02 0.0 0 0 165.95 131.95
  L 165.95 127.01
  A 58.93 56.02 0.0 0 0 107.02 70.99
  L 51.08 70.99
  A 0.27 0.27 0.0 0 0 50.81 71.26"
/>
<path stroke="#918f90" vector-effect="non-scaling-stroke" d="
  M 237.29 178.43
  L 237.34 187.57
  A 0.61 0.61 0.0 0 0 237.96 188.18
  L 261.26 188.06
  A 0.29 0.29 0.0 0 0 261.55 187.77
  Q 261.70 158.58 261.44 133.74
  C 261.09 98.60 227.74 91.94 200.37 98.90
  Q 189.87 101.57 181.41 107.17
  A 0.63 0.63 0.0 0 0 181.19 107.98
  L 190.18 125.92
  A 0.24 0.24 0.0 0 0 190.53 126.00
  Q 201.94 117.68 216.00 117.74
  C 227.27 117.79 235.23 122.58 235.66 134.38
  A 0.49 0.48 -1.2 0 1 235.17 134.88
  Q 224.30 134.77 212.00 134.95
  C 197.29 135.14 180.04 140.89 178.12 157.91
  C 175.89 177.50 190.61 188.63 208.54 189.32
  Q 219.16 189.72 227.44 186.21
  Q 231.67 184.40 236.89 178.29
  A 0.23 0.22 -25.1 0 1 237.29 178.43"
/>
<path stroke="#918f90" vector-effect="non-scaling-stroke" d="
  M 310.00 98.38
  A 0.51 0.51 0.0 0 0 309.49 97.87
  L 284.51 97.87
  A 0.51 0.51 0.0 0 0 284.00 98.38
  L 284.00 187.52
  A 0.51 0.51 0.0 0 0 284.51 188.03
  L 309.49 188.03
  A 0.51 0.51 0.0 0 0 310.00 187.52
  L 310.00 98.38"
/>
<path stroke="#918f90" vector-effect="non-scaling-stroke" d="
  M 369.33 97.93
  A 0.29 0.28 78.4 0 0 369.07 98.33
  L 406.63 187.85
  A 1.71 1.69 -45.8 0 1 406.64 189.14
  C 404.87 193.53 401.63 198.73 397.06 199.60
  Q 387.01 201.52 379.16 195.23
  A 1.10 1.09 -57.2 0 0 377.50 195.59
  L 369.05 212.44
  A 1.39 1.38 31.5 0 0 369.47 214.16
  C 379.87 221.78 394.35 223.65 406.29 219.75
  C 418.42 215.77 424.84 205.71 429.43 194.67
  Q 468.57 100.53 469.37 98.65
  A 0.51 0.51 0.0 0 0 468.90 97.94
  L 445.14 98.05
  A 0.85 0.84 10.6 0 0 444.35 98.58
  L 420.40 157.55
  A 0.32 0.32 0.0 0 1 419.81 157.55
  L 395.91 98.41
  A 0.95 0.94 78.8 0 0 395.04 97.82
  L 369.33 97.93"
/>
<path stroke="#918f90" vector-effect="non-scaling-stroke" d="
  M 581.13 291.26
  C 575.17 299.82 563.88 304.71 553.89 304.92
  Q 540.46 305.21 530.61 297.92
  C 509.81 282.53 512.51 245.39 536.21 234.46
  Q 547.39 229.30 559.99 231.53
  Q 571.79 233.63 580.60 243.58
  A 1.35 1.34 47.6 0 0 582.53 243.67
  L 598.60 228.57
  A 0.58 0.58 0.0 0 0 598.64 227.78
  Q 584.02 210.70 561.31 207.91
  C 535.87 204.79 511.86 213.74 498.09 235.84
  C 484.40 257.80 487.09 288.74 504.03 308.06
  Q 515.74 321.42 532.96 326.01
  C 555.46 332.01 583.43 327.31 598.54 307.69
  A 0.50 0.50 0.0 0 0 598.49 307.01
  L 581.82 291.19
  A 0.46 0.45 38.9 0 0 581.13 291.26"
/>
<path stroke="#918f90" vector-effect="non-scaling-stroke" d="
  M 154.33 259.28
  L 154.63 327.44
  A 0.61 0.61 0.0 0 0 155.24 328.05
  L 179.56 327.94
  A 0.37 0.37 0.0 0 0 179.93 327.57
  L 179.43 211.32
  A 0.37 0.36 89.2 0 0 179.06 210.95
  L 157.44 211.04
  A 0.65 0.65 0.0 0 0 156.88 211.36
  L 115.91 282.33
  A 0.34 0.34 0.0 0 1 115.33 282.33
  L 73.40 211.21
  A 1.27 1.27 0.0 0 0 72.31 210.59
  L 51.22 210.69
  A 0.66 0.65 -0.4 0 0 50.56 211.35
  L 51.06 327.53
  A 0.52 0.52 0.0 0 0 51.58 328.05
  L 75.71 327.94
  A 0.50 0.50 0.0 0 0 76.21 327.44
  L 75.92 260.57
  A 0.28 0.28 0.0 0 1 76.45 260.43
  L 108.52 314.82
  A 1.32 1.31 74.2 0 0 109.67 315.47
  L 120.15 315.43
  A 2.21 2.21 0.0 0 0 122.05 314.32
  L 153.90 259.16
  A 0.23 0.23 0.0 0 1 154.33 259.28"
/>
<path stroke="#918f90" vector-effect="non-scaling-stroke" d="
  M 355.71 237.59
  L 334.75 237.68
  A 0.67 0.67 0.0 0 1 334.08 237.02
  L 334.00 218.36
  A 0.60 0.60 0.0 0 0 333.40 217.76
  L 308.53 217.87
  A 0.58 0.58 0.0 0 0 307.95 218.46
  L 308.03 237.12
  A 0.49 0.49 0.0 0 1 307.54 237.61
  L 295.15 237.66
  A 0.59 0.59 0.0 0 0 294.57 238.25
  L 294.66 257.64
  A 0.52 0.52 0.0 0 0 295.19 258.16
  L 307.59 258.11
  A 0.41 0.41 0.0 0 1 308.00 258.52
  Q 307.98 285.23 308.03 296.00
  C 308.13 314.68 316.68 326.86 335.90 328.88
  Q 345.28 329.86 354.74 326.97
  Q 358.32 325.88 361.63 323.68
  A 0.80 0.79 62.8 0 0 361.93 322.74
  L 355.49 305.40
  A 0.84 0.82 -28.4 0 0 354.22 305.03
  C 348.92 308.92 339.00 309.56 335.41 302.96
  Q 333.96 300.30 333.99 292.92
  Q 334.07 277.43 334.03 258.71
  A 0.51 0.51 0.0 0 1 334.54 258.20
  L 355.45 258.11
  A 0.61 0.61 0.0 0 0 356.05 257.50
  L 355.96 237.84
  A 0.25 0.25 0.0 0 0 355.71 237.59"
/>
<path stroke="#918f90" vector-effect="non-scaling-stroke" d="
  M 603.10 281.43
  C 603.16 309.08 624.43 327.78 651.62 327.73
  C 678.81 327.68 700.01 308.89 699.96 281.24
  C 699.91 253.60 678.64 234.89 651.44 234.95
  C 624.25 235.00 603.05 253.78 603.10 281.43"
/>
<path stroke="#918f90" vector-effect="non-scaling-stroke" d="
  M 258.28 318.23
  L 258.32 327.37
  A 0.61 0.61 0.0 0 0 258.94 327.98
  L 282.25 327.88
  A 0.29 0.29 0.0 0 0 282.54 327.59
  Q 282.71 298.38 282.47 273.53
  C 282.14 238.36 248.78 231.68 221.39 238.63
  Q 210.88 241.29 202.41 246.89
  A 0.63 0.63 0.0 0 0 202.19 247.70
  L 211.17 265.66
  A 0.24 0.24 0.0 0 0 211.52 265.74
  Q 222.94 257.42 237.01 257.49
  C 248.29 257.54 256.25 262.34 256.67 274.15
  A 0.49 0.48 -1.1 0 1 256.18 274.65
  Q 245.31 274.53 233.00 274.70
  C 218.28 274.89 201.02 280.63 199.08 297.66
  C 196.84 317.26 211.56 328.40 229.50 329.10
  Q 240.13 329.51 248.41 326.00
  Q 252.65 324.20 257.88 318.09
  A 0.23 0.22 -25.0 0 1 258.28 318.23"
/>
<path stroke="#918f90" vector-effect="non-scaling-stroke" d="
  M 395.99 290.14
  L 461.35 289.86
  A 0.52 0.50 -86.8 0 0 461.85 289.40
  C 463.41 273.70 459.72 258.57 447.94 247.78
  C 434.96 235.88 414.65 233.37 398.45 239.41
  C 378.58 246.82 367.53 266.19 369.54 287.22
  Q 371.82 311.16 392.75 322.80
  C 405.71 330.00 423.68 330.85 437.23 326.60
  Q 448.28 323.14 455.96 314.60
  A 0.55 0.55 0.0 0 0 455.96 313.86
  L 442.47 299.51
  A 0.52 0.52 0.0 0 0 441.72 299.50
  Q 434.14 306.83 423.73 307.61
  C 410.84 308.58 399.42 304.29 395.61 290.64
  A 0.39 0.39 0.0 0 1 395.99 290.14"
/>
<path stroke="#918f90" vector-effect="non-scaling-stroke" d="
  M 724.7619 294.8125
  A 16.51 16.18 -91.0 0 0 708.8725 311.6024
  A 16.51 16.18 -91.0 0 0 725.3381 327.8275
  A 16.51 16.18 -91.0 0 0 741.2275 311.0376
  A 16.51 16.18 -91.0 0 0 724.7619 294.8125"
/>
<path stroke="#918f90" vector-effect="non-scaling-stroke" d="
  M 77.75 93.97
  L 77.63 164.89
  A 0.39 0.39 0.0 0 0 78.02 165.28
  L 104.25 165.32
  A 34.36 33.61 0.1 0 0 138.67 131.77
  L 138.67 127.29
  A 34.36 33.61 0.1 0 0 104.37 93.62
  L 78.14 93.58
  A 0.39 0.39 0.0 0 0 77.75 93.97"
/>
<path stroke="#918f90" vector-effect="non-scaling-stroke" d="
  M 234.83 150.54
  Q 217.02 150.47 214.02 150.79
  C 207.63 151.47 202.52 154.81 203.17 161.86
  C 203.75 168.23 209.39 170.85 215.19 171.26
  Q 227.18 172.11 233.69 163.23
  C 236.29 159.69 235.74 156.27 235.64 151.33
  A 0.81 0.81 0.0 0 0 234.83 150.54"
/>
<path stroke="#918f90" vector-effect="non-scaling-stroke" d="
  M 629.41 281.41
  C 629.44 294.89 637.40 305.86 651.59 305.83
  C 665.78 305.80 673.70 294.80 673.67 281.32
  C 673.64 267.84 665.68 256.88 651.49 256.91
  C 637.30 256.94 629.38 267.93 629.41 281.41"
/>
<path stroke="#918f90" vector-effect="non-scaling-stroke" d="
  M 255.85 290.30
  Q 238.06 290.22 235.06 290.54
  C 228.67 291.21 223.56 294.54 224.21 301.59
  C 224.78 307.95 230.41 310.58 236.21 310.99
  Q 248.19 311.85 254.70 302.98
  C 257.30 299.45 256.76 296.03 256.66 291.09
  A 0.81 0.81 0.0 0 0 255.85 290.30"
/>
<path stroke="#918f90" vector-effect="non-scaling-stroke" d="
  M 395.68 274.99
  L 437.24 274.99
  A 0.13 0.13 0.0 0 0 437.37 274.86
  L 437.37 274.79
  A 20.81 18.20 0.0 0 0 416.56 256.59
  L 416.36 256.59
  A 20.81 18.20 0.0 0 0 395.55 274.79
  L 395.55 274.86
  A 0.13 0.13 0.0 0 0 395.68 274.99"
/>
</g>
<path fill="#ffffff" d="
  M 792.00 0.00
  L 792.00 392.00
  L 0.00 392.00
  L 0.00 0.00
  L 792.00 0.00
  Z
  M 313.1870 70.7992
  A 16.19 14.90 -1.1 0 0 296.7140 56.2127
  A 16.19 14.90 -1.1 0 0 280.8130 71.4208
  A 16.19 14.90 -1.1 0 0 297.2860 86.0073
  A 16.19 14.90 -1.1 0 0 313.1870 70.7992
  Z
  M 359.00 64.48
  A 0.57 0.57 0.0 0 0 358.43 63.91
  L 333.57 63.91
  A 0.57 0.57 0.0 0 0 333.00 64.48
  L 333.00 187.50
  A 0.57 0.57 0.0 0 0 333.57 188.07
  L 358.43 188.07
  A 0.57 0.57 0.0 0 0 359.00 187.50
  L 359.00 64.48
  Z
  M 50.81 71.26
  L 50.81 187.70
  A 0.27 0.27 0.0 0 0 51.08 187.97
  L 107.02 187.97
  A 58.93 56.02 0.0 0 0 165.95 131.95
  L 165.95 127.01
  A 58.93 56.02 0.0 0 0 107.02 70.99
  L 51.08 70.99
  A 0.27 0.27 0.0 0 0 50.81 71.26
  Z
  M 237.29 178.43
  L 237.34 187.57
  A 0.61 0.61 0.0 0 0 237.96 188.18
  L 261.26 188.06
  A 0.29 0.29 0.0 0 0 261.55 187.77
  Q 261.70 158.58 261.44 133.74
  C 261.09 98.60 227.74 91.94 200.37 98.90
  Q 189.87 101.57 181.41 107.17
  A 0.63 0.63 0.0 0 0 181.19 107.98
  L 190.18 125.92
  A 0.24 0.24 0.0 0 0 190.53 126.00
  Q 201.94 117.68 216.00 117.74
  C 227.27 117.79 235.23 122.58 235.66 134.38
  A 0.49 0.48 -1.2 0 1 235.17 134.88
  Q 224.30 134.77 212.00 134.95
  C 197.29 135.14 180.04 140.89 178.12 157.91
  C 175.89 177.50 190.61 188.63 208.54 189.32
  Q 219.16 189.72 227.44 186.21
  Q 231.67 184.40 236.89 178.29
  A 0.23 0.22 -25.1 0 1 237.29 178.43
  Z
  M 310.00 98.38
  A 0.51 0.51 0.0 0 0 309.49 97.87
  L 284.51 97.87
  A 0.51 0.51 0.0 0 0 284.00 98.38
  L 284.00 187.52
  A 0.51 0.51 0.0 0 0 284.51 188.03
  L 309.49 188.03
  A 0.51 0.51 0.0 0 0 310.00 187.52
  L 310.00 98.38
  Z
  M 369.33 97.93
  A 0.29 0.28 78.4 0 0 369.07 98.33
  L 406.63 187.85
  A 1.71 1.69 -45.8 0 1 406.64 189.14
  C 404.87 193.53 401.63 198.73 397.06 199.60
  Q 387.01 201.52 379.16 195.23
  A 1.10 1.09 -57.2 0 0 377.50 195.59
  L 369.05 212.44
  A 1.39 1.38 31.5 0 0 369.47 214.16
  C 379.87 221.78 394.35 223.65 406.29 219.75
  C 418.42 215.77 424.84 205.71 429.43 194.67
  Q 468.57 100.53 469.37 98.65
  A 0.51 0.51 0.0 0 0 468.90 97.94
  L 445.14 98.05
  A 0.85 0.84 10.6 0 0 444.35 98.58
  L 420.40 157.55
  A 0.32 0.32 0.0 0 1 419.81 157.55
  L 395.91 98.41
  A 0.95 0.94 78.8 0 0 395.04 97.82
  L 369.33 97.93
  Z
  M 581.13 291.26
  C 575.17 299.82 563.88 304.71 553.89 304.92
  Q 540.46 305.21 530.61 297.92
  C 509.81 282.53 512.51 245.39 536.21 234.46
  Q 547.39 229.30 559.99 231.53
  Q 571.79 233.63 580.60 243.58
  A 1.35 1.34 47.6 0 0 582.53 243.67
  L 598.60 228.57
  A 0.58 0.58 0.0 0 0 598.64 227.78
  Q 584.02 210.70 561.31 207.91
  C 535.87 204.79 511.86 213.74 498.09 235.84
  C 484.40 257.80 487.09 288.74 504.03 308.06
  Q 515.74 321.42 532.96 326.01
  C 555.46 332.01 583.43 327.31 598.54 307.69
  A 0.50 0.50 0.0 0 0 598.49 307.01
  L 581.82 291.19
  A 0.46 0.45 38.9 0 0 581.13 291.26
  Z
  M 154.33 259.28
  L 154.63 327.44
  A 0.61 0.61 0.0 0 0 155.24 328.05
  L 179.56 327.94
  A 0.37 0.37 0.0 0 0 179.93 327.57
  L 179.43 211.32
  A 0.37 0.36 89.2 0 0 179.06 210.95
  L 157.44 211.04
  A 0.65 0.65 0.0 0 0 156.88 211.36
  L 115.91 282.33
  A 0.34 0.34 0.0 0 1 115.33 282.33
  L 73.40 211.21
  A 1.27 1.27 0.0 0 0 72.31 210.59
  L 51.22 210.69
  A 0.66 0.65 -0.4 0 0 50.56 211.35
  L 51.06 327.53
  A 0.52 0.52 0.0 0 0 51.58 328.05
  L 75.71 327.94
  A 0.50 0.50 0.0 0 0 76.21 327.44
  L 75.92 260.57
  A 0.28 0.28 0.0 0 1 76.45 260.43
  L 108.52 314.82
  A 1.32 1.31 74.2 0 0 109.67 315.47
  L 120.15 315.43
  A 2.21 2.21 0.0 0 0 122.05 314.32
  L 153.90 259.16
  A 0.23 0.23 0.0 0 1 154.33 259.28
  Z
  M 355.71 237.59
  L 334.75 237.68
  A 0.67 0.67 0.0 0 1 334.08 237.02
  L 334.00 218.36
  A 0.60 0.60 0.0 0 0 333.40 217.76
  L 308.53 217.87
  A 0.58 0.58 0.0 0 0 307.95 218.46
  L 308.03 237.12
  A 0.49 0.49 0.0 0 1 307.54 237.61
  L 295.15 237.66
  A 0.59 0.59 0.0 0 0 294.57 238.25
  L 294.66 257.64
  A 0.52 0.52 0.0 0 0 295.19 258.16
  L 307.59 258.11
  A 0.41 0.41 0.0 0 1 308.00 258.52
  Q 307.98 285.23 308.03 296.00
  C 308.13 314.68 316.68 326.86 335.90 328.88
  Q 345.28 329.86 354.74 326.97
  Q 358.32 325.88 361.63 323.68
  A 0.80 0.79 62.8 0 0 361.93 322.74
  L 355.49 305.40
  A 0.84 0.82 -28.4 0 0 354.22 305.03
  C 348.92 308.92 339.00 309.56 335.41 302.96
  Q 333.96 300.30 333.99 292.92
  Q 334.07 277.43 334.03 258.71
  A 0.51 0.51 0.0 0 1 334.54 258.20
  L 355.45 258.11
  A 0.61 0.61 0.0 0 0 356.05 257.50
  L 355.96 237.84
  A 0.25 0.25 0.0 0 0 355.71 237.59
  Z
  M 603.10 281.43
  C 603.16 309.08 624.43 327.78 651.62 327.73
  C 678.81 327.68 700.01 308.89 699.96 281.24
  C 699.91 253.60 678.64 234.89 651.44 234.95
  C 624.25 235.00 603.05 253.78 603.10 281.43
  Z
  M 258.28 318.23
  L 258.32 327.37
  A 0.61 0.61 0.0 0 0 258.94 327.98
  L 282.25 327.88
  A 0.29 0.29 0.0 0 0 282.54 327.59
  Q 282.71 298.38 282.47 273.53
  C 282.14 238.36 248.78 231.68 221.39 238.63
  Q 210.88 241.29 202.41 246.89
  A 0.63 0.63 0.0 0 0 202.19 247.70
  L 211.17 265.66
  A 0.24 0.24 0.0 0 0 211.52 265.74
  Q 222.94 257.42 237.01 257.49
  C 248.29 257.54 256.25 262.34 256.67 274.15
  A 0.49 0.48 -1.1 0 1 256.18 274.65
  Q 245.31 274.53 233.00 274.70
  C 218.28 274.89 201.02 280.63 199.08 297.66
  C 196.84 317.26 211.56 328.40 229.50 329.10
  Q 240.13 329.51 248.41 326.00
  Q 252.65 324.20 257.88 318.09
  A 0.23 0.22 -25.0 0 1 258.28 318.23
  Z
  M 395.99 290.14
  L 461.35 289.86
  A 0.52 0.50 -86.8 0 0 461.85 289.40
  C 463.41 273.70 459.72 258.57 447.94 247.78
  C 434.96 235.88 414.65 233.37 398.45 239.41
  C 378.58 246.82 367.53 266.19 369.54 287.22
  Q 371.82 311.16 392.75 322.80
  C 405.71 330.00 423.68 330.85 437.23 326.60
  Q 448.28 323.14 455.96 314.60
  A 0.55 0.55 0.0 0 0 455.96 313.86
  L 442.47 299.51
  A 0.52 0.52 0.0 0 0 441.72 299.50
  Q 434.14 306.83 423.73 307.61
  C 410.84 308.58 399.42 304.29 395.61 290.64
  A 0.39 0.39 0.0 0 1 395.99 290.14
  Z
  M 724.7619 294.8125
  A 16.51 16.18 -91.0 0 0 708.8725 311.6024
  A 16.51 16.18 -91.0 0 0 725.3381 327.8275
  A 16.51 16.18 -91.0 0 0 741.2275 311.0376
  A 16.51 16.18 -91.0 0 0 724.7619 294.8125
  Z"
/>
<ellipse fill="#231f20" cx="0.00" cy="0.00" transform="translate(297.00,71.11) rotate(-1.1)" rx="16.19" ry="14.90"/>
<rect fill="#231f20" x="333.00" y="63.91" width="26.00" height="124.16" rx="0.57"/>
<path fill="#231f20" d="
  M 50.81 71.26
  A 0.27 0.27 0.0 0 1 51.08 70.99
  L 107.02 70.99
  A 58.93 56.02 0.0 0 1 165.95 127.01
  L 165.95 131.95
  A 58.93 56.02 0.0 0 1 107.02 187.97
  L 51.08 187.97
  A 0.27 0.27 0.0 0 1 50.81 187.70
  L 50.81 71.26
  Z
  M 77.75 93.97
  L 77.63 164.89
  A 0.39 0.39 0.0 0 0 78.02 165.28
  L 104.25 165.32
  A 34.36 33.61 0.1 0 0 138.67 131.77
  L 138.67 127.29
  A 34.36 33.61 0.1 0 0 104.37 93.62
  L 78.14 93.58
  A 0.39 0.39 0.0 0 0 77.75 93.97
  Z"
/>
<path fill="#ffffff" d="
  M 77.75 93.97
  A 0.39 0.39 0.0 0 1 78.14 93.58
  L 104.37 93.62
  A 34.36 33.61 0.1 0 1 138.67 127.29
  L 138.67 131.77
  A 34.36 33.61 0.1 0 1 104.25 165.32
  L 78.02 165.28
  A 0.39 0.39 0.0 0 1 77.63 164.89
  L 77.75 93.97
  Z"
/>
<path fill="#231f20" d="
  M 237.29 178.43
  A 0.23 0.22 -25.1 0 0 236.89 178.29
  Q 231.67 184.40 227.44 186.21
  Q 219.16 189.72 208.54 189.32
  C 190.61 188.63 175.89 177.50 178.12 157.91
  C 180.04 140.89 197.29 135.14 212.00 134.95
  Q 224.30 134.77 235.17 134.88
  A 0.49 0.48 -1.2 0 0 235.66 134.38
  C 235.23 122.58 227.27 117.79 216.00 117.74
  Q 201.94 117.68 190.53 126.00
  A 0.24 0.24 0.0 0 1 190.18 125.92
  L 181.19 107.98
  A 0.63 0.63 0.0 0 1 181.41 107.17
  Q 189.87 101.57 200.37 98.90
  C 227.74 91.94 261.09 98.60 261.44 133.74
  Q 261.70 158.58 261.55 187.77
  A 0.29 0.29 0.0 0 1 261.26 188.06
  L 237.96 188.18
  A 0.61 0.61 0.0 0 1 237.34 187.57
  L 237.29 178.43
  Z
  M 234.83 150.54
  Q 217.02 150.47 214.02 150.79
  C 207.63 151.47 202.52 154.81 203.17 161.86
  C 203.75 168.23 209.39 170.85 215.19 171.26
  Q 227.18 172.11 233.69 163.23
  C 236.29 159.69 235.74 156.27 235.64 151.33
  A 0.81 0.81 0.0 0 0 234.83 150.54
  Z"
/>
<rect fill="#231f20" x="284.00" y="97.87" width="26.00" height="90.16" rx="0.51"/>
<path fill="#231f20" d="
  M 369.33 97.93
  L 395.04 97.82
  A 0.95 0.94 78.8 0 1 395.91 98.41
  L 419.81 157.55
  A 0.32 0.32 0.0 0 0 420.40 157.55
  L 444.35 98.58
  A 0.85 0.84 10.6 0 1 445.14 98.05
  L 468.90 97.94
  A 0.51 0.51 0.0 0 1 469.37 98.65
  Q 468.57 100.53 429.43 194.67
  C 424.84 205.71 418.42 215.77 406.29 219.75
  C 394.35 223.65 379.87 221.78 369.47 214.16
  A 1.39 1.38 31.5 0 1 369.05 212.44
  L 377.50 195.59
  A 1.10 1.09 -57.2 0 1 379.16 195.23
  Q 387.01 201.52 397.06 199.60
  C 401.63 198.73 404.87 193.53 406.64 189.14
  A 1.71 1.69 -45.8 0 0 406.63 187.85
  L 369.07 98.33
  A 0.29 0.28 78.4 0 1 369.33 97.93
  Z"
/>
<path fill="#ffffff" d="
  M 235.64 151.33
  C 235.74 156.27 236.29 159.69 233.69 163.23
  Q 227.18 172.11 215.19 171.26
  C 209.39 170.85 203.75 168.23 203.17 161.86
  C 202.52 154.81 207.63 151.47 214.02 150.79
  Q 217.02 150.47 234.83 150.54
  A 0.81 0.81 0.0 0 1 235.64 151.33
  Z"
/>
<path fill="#231f20" d="
  M 581.13 291.26
  A 0.46 0.45 38.9 0 1 581.82 291.19
  L 598.49 307.01
  A 0.50 0.50 0.0 0 1 598.54 307.69
  C 583.43 327.31 555.46 332.01 532.96 326.01
  Q 515.74 321.42 504.03 308.06
  C 487.09 288.74 484.40 257.80 498.09 235.84
  C 511.86 213.74 535.87 204.79 561.31 207.91
  Q 584.02 210.70 598.64 227.78
  A 0.58 0.58 0.0 0 1 598.60 228.57
  L 582.53 243.67
  A 1.35 1.34 47.6 0 1 580.60 243.58
  Q 571.79 233.63 559.99 231.53
  Q 547.39 229.30 536.21 234.46
  C 512.51 245.39 509.81 282.53 530.61 297.92
  Q 540.46 305.21 553.89 304.92
  C 563.88 304.71 575.17 299.82 581.13 291.26
  Z"
/>
<path fill="#231f20" d="
  M 154.33 259.28
  A 0.23 0.23 0.0 0 0 153.90 259.16
  L 122.05 314.32
  A 2.21 2.21 0.0 0 1 120.15 315.43
  L 109.67 315.47
  A 1.32 1.31 74.2 0 1 108.52 314.82
  L 76.45 260.43
  A 0.28 0.28 0.0 0 0 75.92 260.57
  L 76.21 327.44
  A 0.50 0.50 0.0 0 1 75.71 327.94
  L 51.58 328.05
  A 0.52 0.52 0.0 0 1 51.06 327.53
  L 50.56 211.35
  A 0.66 0.65 -0.4 0 1 51.22 210.69
  L 72.31 210.59
  A 1.27 1.27 0.0 0 1 73.40 211.21
  L 115.33 282.33
  A 0.34 0.34 0.0 0 0 115.91 282.33
  L 156.88 211.36
  A 0.65 0.65 0.0 0 1 157.44 211.04
  L 179.06 210.95
  A 0.37 0.36 89.2 0 1 179.43 211.32
  L 179.93 327.57
  A 0.37 0.37 0.0 0 1 179.56 327.94
  L 155.24 328.05
  A 0.61 0.61 0.0 0 1 154.63 327.44
  L 154.33 259.28
  Z"
/>
<path fill="#231f20" d="
  M 355.71 237.59
  A 0.25 0.25 0.0 0 1 355.96 237.84
  L 356.05 257.50
  A 0.61 0.61 0.0 0 1 355.45 258.11
  L 334.54 258.20
  A 0.51 0.51 0.0 0 0 334.03 258.71
  Q 334.07 277.43 333.99 292.92
  Q 333.96 300.30 335.41 302.96
  C 339.00 309.56 348.92 308.92 354.22 305.03
  A 0.84 0.82 -28.4 0 1 355.49 305.40
  L 361.93 322.74
  A 0.80 0.79 62.8 0 1 361.63 323.68
  Q 358.32 325.88 354.74 326.97
  Q 345.28 329.86 335.90 328.88
  C 316.68 326.86 308.13 314.68 308.03 296.00
  Q 307.98 285.23 308.00 258.52
  A 0.41 0.41 0.0 0 0 307.59 258.11
  L 295.19 258.16
  A 0.52 0.52 0.0 0 1 294.66 257.64
  L 294.57 238.25
  A 0.59 0.59 0.0 0 1 295.15 237.66
  L 307.54 237.61
  A 0.49 0.49 0.0 0 0 308.03 237.12
  L 307.95 218.46
  A 0.58 0.58 0.0 0 1 308.53 217.87
  L 333.40 217.76
  A 0.60 0.60 0.0 0 1 334.00 218.36
  L 334.08 237.02
  A 0.67 0.67 0.0 0 0 334.75 237.68
  L 355.71 237.59
  Z"
/>
<path fill="#231f20" d="
  M 651.44 234.95
  C 678.64 234.89 699.91 253.60 699.96 281.24
  C 700.01 308.89 678.81 327.68 651.62 327.73
  C 624.43 327.78 603.16 309.08 603.10 281.43
  C 603.05 253.78 624.25 235.00 651.44 234.95
  Z
  M 629.41 281.41
  C 629.44 294.89 637.40 305.86 651.59 305.83
  C 665.78 305.80 673.70 294.80 673.67 281.32
  C 673.64 267.84 665.68 256.88 651.49 256.91
  C 637.30 256.94 629.38 267.93 629.41 281.41
  Z"
/>
<path fill="#231f20" d="
  M 257.88 318.09
  Q 252.65 324.20 248.41 326.00
  Q 240.13 329.51 229.50 329.10
  C 211.56 328.40 196.84 317.26 199.08 297.66
  C 201.02 280.63 218.28 274.89 233.00 274.70
  Q 245.31 274.53 256.18 274.65
  A 0.49 0.48 -1.1 0 0 256.67 274.15
  C 256.25 262.34 248.29 257.54 237.01 257.49
  Q 222.94 257.42 211.52 265.74
  A 0.24 0.24 0.0 0 1 211.17 265.66
  L 202.19 247.70
  A 0.63 0.63 0.0 0 1 202.41 246.89
  Q 210.88 241.29 221.39 238.63
  C 248.78 231.68 282.14 238.36 282.47 273.53
  Q 282.71 298.38 282.54 327.59
  A 0.29 0.29 0.0 0 1 282.25 327.88
  L 258.94 327.98
  A 0.61 0.61 0.0 0 1 258.32 327.37
  L 258.28 318.23
  A 0.23 0.22 -25.0 0 0 257.88 318.09
  Z
  M 255.85 290.30
  Q 238.06 290.22 235.06 290.54
  C 228.67 291.21 223.56 294.54 224.21 301.59
  C 224.78 307.95 230.41 310.58 236.21 310.99
  Q 248.19 311.85 254.70 302.98
  C 257.30 299.45 256.76 296.03 256.66 291.09
  A 0.81 0.81 0.0 0 0 255.85 290.30
  Z"
/>
<path fill="#231f20" d="
  M 395.61 290.64
  C 399.42 304.29 410.84 308.58 423.73 307.61
  Q 434.14 306.83 441.72 299.50
  A 0.52 0.52 0.0 0 1 442.47 299.51
  L 455.96 313.86
  A 0.55 0.55 0.0 0 1 455.96 314.60
  Q 448.28 323.14 437.23 326.60
  C 423.68 330.85 405.71 330.00 392.75 322.80
  Q 371.82 311.16 369.54 287.22
  C 367.53 266.19 378.58 246.82 398.45 239.41
  C 414.65 233.37 434.96 235.88 447.94 247.78
  C 459.72 258.57 463.41 273.70 461.85 289.40
  A 0.52 0.50 -86.8 0 1 461.35 289.86
  L 395.99 290.14
  A 0.39 0.39 0.0 0 0 395.61 290.64
  Z
  M 395.68 274.99
  L 437.24 274.99
  A 0.13 0.13 0.0 0 0 437.37 274.86
  L 437.37 274.79
  A 20.81 18.20 0.0 0 0 416.56 256.59
  L 416.36 256.59
  A 20.81 18.20 0.0 0 0 395.55 274.79
  L 395.55 274.86
  A 0.13 0.13 0.0 0 0 395.68 274.99
  Z"
/>
<path fill="#ffffff" d="
  M 395.68 274.99
  A 0.13 0.13 0.0 0 1 395.55 274.86
  L 395.55 274.79
  A 20.81 18.20 -0.0 0 1 416.36 256.59
  L 416.56 256.59
  A 20.81 18.20 -0.0 0 1 437.37 274.79
  L 437.37 274.86
  A 0.13 0.13 0.0 0 1 437.24 274.99
  L 395.68 274.99
  Z"
/>
<path fill="#ffffff" d="
  M 651.49 256.91
  C 665.68 256.88 673.64 267.84 673.67 281.32
  C 673.70 294.80 665.78 305.80 651.59 305.83
  C 637.40 305.86 629.44 294.89 629.41 281.41
  C 629.38 267.93 637.30 256.94 651.49 256.91
  Z"
/>
<path fill="#ffffff" d="
  M 255.85 290.30
  A 0.81 0.81 0.0 0 1 256.66 291.09
  C 256.76 296.03 257.30 299.45 254.70 302.98
  Q 248.19 311.85 236.21 310.99
  C 230.41 310.58 224.78 307.95 224.21 301.59
  C 223.56 294.54 228.67 291.21 235.06 290.54
  Q 238.06 290.22 255.85 290.30
  Z"
/>
<ellipse fill="#231f20" cx="0.00" cy="0.00" transform="translate(725.05,311.32) rotate(-91.0)" rx="16.51" ry="16.18"/>
</svg>
