<?xml version="1.0" encoding="UTF-8" standalone="no"?>
<!DOCTYPE svg PUBLIC "-//W3C//DTD SVG 1.1//EN" "http://www.w3.org/Graphics/SVG/1.1/DTD/svg11.dtd">
<svg xmlns="http://www.w3.org/2000/svg" version="1.1" viewBox="0.00 0.00 2934.00 400.00">
<path fill="#b1b3b3" d="
  M 210.17 0.00
  Q 263.50 3.04 306.86 30.64
  C 372.74 72.58 408.36 147.76 398.57 225.43
  C 391.04 285.11 356.59 338.49 305.62 370.13
  Q 262.35 397.00 210.28 400.00
  L 190.03 400.00
  C 129.30 396.64 73.53 366.61 38.16 317.83
  Q 3.45 269.97 0.00 209.77
  L 0.00 191.54
  L 0.53 185.20
  A 0.55 0.54 -87.1 0 1 1.07 184.71
  L 54.22 184.71
  A 1.64 1.63 22.0 0 0 55.39 184.22
  L 138.23 101.38
  A 0.31 0.30 67.7 0 1 138.75 101.60
  L 138.75 223.36
  A 0.21 0.21 0.0 0 0 139.11 223.51
  L 177.67 184.95
  A 1.53 1.49 21.7 0 1 178.75 184.50
  L 276.43 184.50
  A 0.57 0.56 -0.0 0 1 277.00 185.06
  L 277.00 214.90
  A 0.61 0.60 -0.0 0 1 276.39 215.50
  L 191.61 215.50
  A 1.14 1.12 22.3 0 0 190.81 215.83
  L 108.07 298.57
  A 0.34 0.33 67.6 0 1 107.50 298.33
  L 107.50 176.62
  A 0.20 0.20 0.0 0 0 107.16 176.48
  L 68.53 215.10
  A 1.38 1.36 22.3 0 1 67.56 215.50
  L 32.22 215.50
  A 0.50 0.49 86.9 0 0 31.73 216.05
  C 41.13 311.09 127.38 380.55 222.77 367.54
  C 320.77 354.17 386.91 259.27 364.94 162.57
  C 352.83 109.32 315.07 64.55 264.38 43.68
  C 202.97 18.40 132.30 31.36 83.98 77.22
  Q 50.82 108.70 37.47 153.45
  A 0.77 0.76 8.0 0 1 36.73 154.00
  L 5.90 154.00
  A 0.48 0.48 0.0 0 1 5.43 153.42
  C 17.89 100.62 51.83 55.05 98.74 27.34
  Q 139.71 3.14 189.70 0.00
  L 210.17 0.00
  Z"
/>
<rect fill="#b1b3b3" x="153.74" y="107.50" width="138.74" height="31.00" rx="0.45"/>
<path fill="#b1b3b3" d="
  M 719.97 244.27
  Q 680.26 244.25 680.05 244.26
  A 0.85 0.84 -77.9 0 0 679.37 244.71
  L 662.25 277.77
  A 0.90 0.90 0.0 0 1 661.45 278.26
  L 639.16 278.24
  A 0.30 0.30 0.0 0 1 638.90 277.80
  Q 682.03 194.65 719.74 122.00
  Q 719.85 121.79 720.06 121.79
  Q 720.20 121.79 720.31 122.00
  Q 757.95 194.69 801.00 277.88
  A 0.30 0.30 0.0 0 1 800.74 278.32
  L 778.44 278.32
  A 0.90 0.90 0.0 0 1 777.64 277.83
  L 760.56 244.75
  A 0.85 0.84 78.0 0 0 759.88 244.30
  Q 759.67 244.29 719.97 244.27
  Z
  M 689.13 225.77
  A 0.33 0.33 0.0 0 0 689.43 226.24
  L 750.09 226.24
  A 0.33 0.33 0.0 0 0 750.39 225.77
  L 720.06 163.34
  A 0.33 0.33 0.0 0 0 719.46 163.34
  L 689.13 225.77
  Z"
/>
<path fill="#b1b3b3" d="
  M 1687.24 200.89
  C 1687.23 242.03 1658.80 273.03 1619.11 279.02
  C 1568.92 286.58 1522.73 253.84 1522.74 200.87
  C 1522.75 147.89 1568.95 115.16 1619.13 122.75
  C 1658.83 128.75 1687.25 159.76 1687.24 200.89
  Z
  M 1545.07 201.02
  C 1545.16 239.75 1577.79 265.01 1615.33 259.32
  C 1645.05 254.82 1664.89 230.44 1664.82 200.74
  C 1664.75 171.04 1644.79 146.76 1615.06 142.40
  C 1577.48 136.89 1544.98 162.30 1545.07 201.02
  Z"
/>
<path fill="#b1b3b3" d="
  M 2130.98 135.88
  L 2124.27 152.89
  A 0.58 0.58 0.0 0 1 2123.43 153.17
  Q 2099.31 138.13 2071.38 141.35
  C 2058.53 142.83 2045.82 148.99 2044.10 163.13
  Q 2043.38 169.11 2046.67 174.59
  C 2050.87 181.56 2060.40 185.19 2068.42 187.59
  Q 2072.72 188.88 2096.85 194.90
  Q 2112.20 198.74 2123.35 206.48
  Q 2135.47 214.90 2137.31 230.58
  C 2140.77 259.92 2117.45 276.09 2091.47 279.20
  C 2066.85 282.15 2038.61 277.36 2019.09 261.34
  A 1.19 1.18 -58.5 0 1 2018.76 259.94
  L 2026.17 243.57
  A 0.55 0.54 -57.6 0 1 2027.01 243.38
  C 2043.34 257.14 2065.47 262.55 2086.74 260.60
  C 2099.13 259.46 2115.07 253.64 2115.70 238.46
  C 2116.22 226.04 2106.43 219.83 2095.72 216.28
  C 2082.90 212.03 2065.71 209.18 2051.61 203.90
  C 2035.88 197.99 2024.07 188.44 2022.37 170.76
  C 2019.72 143.11 2039.72 126.96 2064.75 123.02
  C 2086.52 119.58 2111.92 122.70 2130.71 135.03
  A 0.70 0.69 -62.8 0 1 2130.98 135.88
  Z"
/>
<path fill="#b1b3b3" d="
  M 2308.94 121.83
  Q 2309.08 121.83 2309.19 122.05
  Q 2346.80 194.69 2389.81 277.83
  A 0.30 0.30 0.0 0 1 2389.55 278.27
  L 2367.27 278.27
  A 0.90 0.90 0.0 0 1 2366.47 277.78
  L 2349.40 244.72
  A 0.85 0.84 78.0 0 0 2348.72 244.27
  Q 2348.51 244.26 2308.83 244.23
  Q 2269.15 244.21 2268.94 244.23
  A 0.85 0.84 -77.9 0 0 2268.26 244.67
  L 2251.15 277.71
  A 0.90 0.90 0.0 0 1 2250.35 278.20
  L 2228.07 278.18
  A 0.30 0.30 0.0 0 1 2227.81 277.74
  Q 2270.92 194.65 2308.62 122.05
  Q 2308.73 121.83 2308.94 121.83
  Z
  M 2278.01 225.74
  A 0.35 0.35 0.0 0 0 2278.32 226.24
  L 2338.92 226.24
  A 0.35 0.35 0.0 0 0 2339.23 225.74
  L 2308.93 163.37
  A 0.35 0.35 0.0 0 0 2308.31 163.37
  L 2278.01 225.74
  Z"
/>
<path fill="#b1b3b3" d="
  M 2934.00 194.74
  L 2934.00 206.97
  C 2931.05 241.73 2908.68 268.72 2874.96 277.16
  C 2828.98 288.65 2780.46 265.43 2771.07 216.48
  C 2763.09 174.87 2787.07 134.93 2828.76 124.60
  C 2878.94 112.16 2929.57 140.56 2934.00 194.74
  Z
  M 2791.97 201.02
  C 2792.06 239.75 2824.68 265.01 2862.23 259.32
  C 2891.95 254.82 2911.79 230.44 2911.72 200.74
  C 2911.65 171.03 2891.69 146.75 2861.96 142.39
  C 2824.38 136.88 2791.88 162.29 2791.97 201.02
  Z"
/>
<path fill="#b1b3b3" d="
  M 532.00 143.31
  L 532.00 189.94
  A 0.31 0.31 0.0 0 0 532.31 190.25
  L 609.18 190.25
  A 0.31 0.31 0.0 0 1 609.49 190.56
  L 609.49 208.94
  A 0.31 0.31 0.0 0 1 609.18 209.25
  L 532.31 209.25
  A 0.31 0.31 0.0 0 0 532.00 209.56
  L 532.00 258.45
  A 0.31 0.31 0.0 0 0 532.31 258.76
  L 619.27 258.76
  A 0.31 0.31 0.0 0 1 619.55 259.20
  L 611.00 278.07
  A 0.31 0.31 0.0 0 1 610.72 278.25
  L 510.06 278.25
  A 0.31 0.31 0.0 0 1 509.75 277.94
  L 509.75 123.81
  A 0.31 0.31 0.0 0 1 510.06 123.50
  L 618.69 123.50
  A 0.31 0.31 0.0 0 1 619.00 123.81
  L 619.00 142.69
  A 0.31 0.31 0.0 0 1 618.69 143.00
  L 532.31 143.00
  A 0.31 0.31 0.0 0 0 532.00 143.31
  Z"
/>
<path fill="#b1b3b3" d="
  M 825.23 277.61
  L 825.23 123.83
  A 0.31 0.30 -0.0 0 1 825.54 123.53
  Q 859.11 123.47 888.74 123.54
  Q 897.94 123.56 909.25 126.25
  C 931.51 131.55 947.27 147.15 949.79 170.51
  C 952.51 195.69 941.33 217.06 916.95 226.10
  A 0.54 0.54 0.0 0 0 916.69 226.92
  L 952.70 277.89
  A 0.23 0.23 0.0 0 1 952.51 278.25
  L 929.04 278.25
  A 0.94 0.94 0.0 0 1 928.28 277.86
  L 895.50 231.45
  A 0.61 0.60 -17.7 0 0 895.01 231.20
  L 848.22 231.20
  A 0.73 0.72 0.0 0 0 847.49 231.92
  L 847.49 277.66
  A 0.59 0.59 0.0 0 1 846.90 278.25
  L 825.88 278.25
  A 0.65 0.64 0.0 0 1 825.23 277.61
  Z
  M 847.49 177.62
  Q 847.52 207.44 847.56 211.94
  A 0.26 0.26 0.0 0 0 847.82 212.20
  Q 876.67 212.32 889.50 212.09
  Q 896.87 211.96 905.25 209.28
  C 920.10 204.53 927.76 193.23 927.75 177.55
  C 927.74 161.86 920.06 150.58 905.19 145.86
  Q 896.81 143.19 889.44 143.07
  Q 876.61 142.86 847.76 143.03
  A 0.26 0.26 0.0 0 0 847.50 143.29
  Q 847.47 147.79 847.49 177.62
  Z"
/>
<path fill="#b1b3b3" d="
  M 1038.37 123.50
  Q 1101.25 123.50 1102.19 123.53
  A 0.32 0.31 0.4 0 1 1102.50 123.84
  L 1102.50 142.41
  A 0.59 0.59 0.0 0 1 1101.91 143.00
  L 1050.00 143.00
  A 0.50 0.50 0.0 0 0 1049.50 143.50
  L 1049.50 277.91
  A 0.30 0.30 0.0 0 1 1049.20 278.21
  Q 1047.84 278.25 1038.37 278.25
  Q 1028.90 278.25 1027.54 278.22
  A 0.30 0.30 0.0 0 1 1027.24 277.91
  L 1027.24 143.50
  A 0.50 0.50 0.0 0 0 1026.74 143.00
  L 974.83 143.00
  A 0.59 0.59 0.0 0 1 974.24 142.41
  L 974.23 123.84
  A 0.32 0.31 -0.4 0 1 974.55 123.53
  Q 975.48 123.50 1038.37 123.50
  Z"
/>
<path fill="#b1b3b3" d="
  M 1192.99 190.00
  Q 1233.48 190.00 1236.64 189.92
  A 0.62 0.62 0.0 0 0 1237.24 189.30
  L 1237.24 124.10
  A 0.59 0.58 -90.0 0 1 1237.82 123.51
  L 1258.80 123.51
  A 0.70 0.69 90.0 0 1 1259.49 124.21
  L 1259.49 277.63
  A 0.62 0.62 0.0 0 1 1258.87 278.25
  L 1237.82 278.25
  A 0.59 0.58 90.0 0 1 1237.24 277.66
  L 1237.24 209.85
  A 0.32 0.32 0.0 0 0 1236.93 209.53
  Q 1235.73 209.50 1192.99 209.50
  Q 1150.26 209.50 1149.06 209.53
  A 0.32 0.32 0.0 0 0 1148.75 209.85
  L 1148.75 277.66
  A 0.59 0.58 90.0 0 1 1148.17 278.25
  L 1127.12 278.25
  A 0.62 0.62 0.0 0 1 1126.50 277.63
  L 1126.50 124.21
  A 0.70 0.69 90.0 0 1 1127.19 123.51
  L 1148.17 123.51
  A 0.59 0.58 90.0 0 1 1148.75 124.10
  L 1148.75 189.30
  A 0.62 0.62 0.0 0 0 1149.35 189.92
  Q 1152.51 190.00 1192.99 190.00
  Z"
/>
<path fill="#b1b3b3" d="
  M 1401.14 124.35
  Q 1401.30 124.35 1401.49 124.73
  Q 1427.77 176.23 1453.25 228.50
  A 0.02 0.01 -57.4 0 0 1453.28 228.49
  L 1494.56 123.93
  A 0.69 0.69 0.0 0 1 1495.20 123.49
  L 1517.61 123.49
  A 0.35 0.34 -79.5 0 1 1517.93 123.96
  L 1456.53 279.52
  A 0.39 0.39 0.0 0 1 1455.82 279.55
  L 1401.32 172.92
  A 0.15 0.04 13.4 0 0 1401.20 172.86
  Q 1401.17 172.85 1401.14 172.85
  Q 1401.11 172.85 1401.08 172.86
  A 0.15 0.04 -13.4 0 0 1400.97 172.92
  L 1346.48 279.56
  A 0.39 0.39 0.0 0 1 1345.77 279.53
  L 1284.35 123.98
  A 0.35 0.34 79.4 0 1 1284.67 123.51
  L 1307.08 123.50
  A 0.69 0.69 0.0 0 1 1307.72 123.94
  L 1349.02 228.50
  A 0.02 0.01 57.4 0 0 1349.05 228.51
  Q 1374.52 176.23 1400.79 124.73
  Q 1400.98 124.35 1401.14 124.35
  Z"
/>
<path fill="#b1b3b3" d="
  M 1711.89 278.25
  A 0.65 0.64 0.0 0 1 1711.24 277.61
  L 1711.24 123.82
  A 0.31 0.30 0.0 0 1 1711.55 123.52
  Q 1745.12 123.46 1774.75 123.53
  Q 1783.95 123.55 1795.27 126.24
  C 1817.53 131.54 1833.29 147.14 1835.81 170.50
  C 1838.53 195.69 1827.35 217.06 1802.96 226.10
  A 0.54 0.54 0.0 0 0 1802.70 226.92
  L 1838.72 277.89
  A 0.23 0.23 0.0 0 1 1838.53 278.25
  L 1815.05 278.25
  A 0.94 0.94 0.0 0 1 1814.29 277.86
  L 1781.51 231.45
  A 0.61 0.60 -17.7 0 0 1781.02 231.20
  L 1734.23 231.20
  A 0.73 0.72 0.0 0 0 1733.50 231.92
  L 1733.50 277.66
  A 0.59 0.59 0.0 0 1 1732.91 278.25
  L 1711.89 278.25
  Z
  M 1733.62 143.16
  L 1733.38 211.78
  A 0.20 0.20 0.0 0 0 1733.58 211.98
  L 1777.06 212.13
  A 36.58 31.88 0.2 0 0 1813.75 180.38
  L 1813.77 175.12
  A 36.58 31.88 0.2 0 0 1777.30 143.11
  L 1733.82 142.96
  A 0.20 0.20 0.0 0 0 1733.62 143.16
  Z"
/>
<path fill="#b1b3b3" d="
  M 1933.73 193.40
  L 2003.38 277.71
  A 0.33 0.33 0.0 0 1 2003.13 278.25
  L 1977.68 278.25
  A 0.33 0.33 0.0 0 1 1977.43 278.14
  L 1918.67 209.94
  A 0.33 0.33 0.0 0 0 1918.18 209.93
  L 1890.59 238.30
  A 0.33 0.33 0.0 0 0 1890.50 238.53
  L 1890.50 277.92
  A 0.33 0.33 0.0 0 1 1890.17 278.25
  L 1868.33 278.25
  A 0.33 0.33 0.0 0 1 1868.00 277.92
  L 1868.00 123.84
  A 0.33 0.33 0.0 0 1 1868.33 123.51
  L 1890.17 123.51
  A 0.33 0.33 0.0 0 1 1890.50 123.84
  L 1890.50 208.62
  A 0.33 0.33 0.0 0 0 1891.07 208.85
  L 1973.92 123.60
  A 0.33 0.33 0.0 0 1 1974.16 123.50
  L 1998.89 123.50
  A 0.33 0.33 0.0 0 1 1999.13 124.06
  L 1933.74 192.96
  A 0.33 0.33 0.0 0 0 1933.73 193.40
  Z"
/>
<path fill="#b1b3b3" d="
  M 2417.75 124.19
  Q 2417.76 172.94 2417.74 206.50
  C 2417.74 219.23 2418.73 234.22 2426.51 244.85
  Q 2436.18 258.08 2454.31 259.77
  Q 2461.98 260.48 2468.01 259.82
  C 2481.84 258.29 2493.05 252.16 2499.11 239.63
  Q 2504.62 228.24 2504.69 213.72
  Q 2504.82 184.04 2504.73 123.83
  A 0.32 0.32 0.0 0 1 2505.05 123.51
  L 2525.78 123.51
  A 0.71 0.71 0.0 0 1 2526.49 124.22
  Q 2526.56 206.29 2526.39 216.19
  C 2525.89 246.14 2510.68 271.58 2480.07 278.06
  Q 2459.55 282.41 2439.76 277.49
  C 2409.34 269.93 2395.79 244.02 2395.61 214.20
  Q 2395.37 176.08 2395.56 124.12
  A 0.63 0.63 0.0 0 1 2396.19 123.50
  L 2417.06 123.50
  A 0.69 0.69 0.0 0 1 2417.75 124.19
  Z"
/>
<path fill="#b1b3b3" d="
  M 2550.62 124.05
  A 0.54 0.54 0.0 0 1 2551.17 123.51
  L 2621.18 123.63
  A 78.22 74.40 0.1 0 1 2699.27 198.17
  L 2699.26 203.95
  A 78.22 74.40 0.1 0 1 2620.92 278.21
  L 2550.90 278.09
  A 0.54 0.54 0.0 0 1 2550.36 277.55
  L 2550.62 124.05
  Z
  M 2572.75 143.35
  L 2572.75 258.39
  A 0.27 0.27 0.0 0 0 2573.02 258.66
  L 2619.03 258.66
  A 57.90 55.32 -0.0 0 0 2676.93 203.34
  L 2676.93 198.40
  A 57.90 55.32 0.0 0 0 2619.03 143.08
  L 2573.02 143.08
  A 0.27 0.27 0.0 0 0 2572.75 143.35
  Z"
/>
<rect fill="#b1b3b3" x="2723.51" y="123.52" width="21.74" height="154.74" rx="0.43"/>
<path fill="#b1b3b3" d="
  M 292.50 261.82
  L 292.50 292.18
  A 0.32 0.32 0.0 0 1 292.18 292.50
  L 138.88 292.50
  A 0.32 0.32 0.0 0 1 138.66 291.95
  L 169.02 261.59
  A 0.32 0.32 0.0 0 1 169.24 261.50
  L 292.18 261.50
  A 0.32 0.32 0.0 0 1 292.50 261.82
  Z"
/>
</svg>
