<?xml version="1.0" encoding="UTF-8" standalone="no"?>
<!DOCTYPE svg PUBLIC "-//W3C//DTD SVG 1.1//EN" "http://www.w3.org/Graphics/SVG/1.1/DTD/svg11.dtd">
<svg xmlns="http://www.w3.org/2000/svg" version="1.1" viewBox="0.00 0.00 1580.00 1873.00">
<path fill="#ad6532" d="
  M 1175.81 193.30
  A 0.22 0.21 59.4 0 1 1175.72 193.66
  Q 1174.19 194.12 460.10 409.99
  C 448.88 413.38 443.50 425.94 448.23 436.46
  Q 449.46 439.19 456.58 446.30
  Q 689.18 678.82 690.28 679.93
  A 0.33 0.32 45.6 0 1 690.28 680.38
  L 420.64 950.29
  A 0.30 0.29 -42.5 0 1 420.21 950.28
  C 345.97 864.53 300.76 760.49 288.31 648.01
  C 273.50 514.22 307.00 379.52 383.51 269.23
  C 477.62 133.57 629.01 47.56 795.02 42.39
  Q 798.39 42.29 806.99 42.11
  Q 812.49 42.00 818.96 42.11
  Q 960.06 44.65 1080.22 118.17
  Q 1132.72 150.28 1175.81 193.30
  Z"
/>
<path fill="#ad6532" d="
  M 447.40 979.11
  A 0.22 0.21 59.4 0 1 447.49 978.75
  Q 449.02 978.29 1163.28 762.55
  C 1174.50 759.16 1179.88 746.60 1175.15 736.08
  Q 1173.92 733.35 1166.80 726.23
  Q 934.22 493.62 933.12 492.51
  A 0.33 0.32 45.7 0 1 933.12 492.06
  L 1202.87 222.17
  A 0.30 0.29 -42.5 0 1 1203.30 222.18
  C 1277.53 307.96 1322.72 412.03 1335.15 524.53
  C 1349.93 658.35 1316.39 793.06 1239.85 903.35
  C 1145.69 1039.01 994.25 1125.00 828.21 1130.13
  Q 824.84 1130.23 816.24 1130.41
  Q 810.74 1130.52 804.27 1130.41
  Q 663.15 1127.83 542.98 1054.27
  Q 490.48 1022.15 447.40 979.11
  Z"
/>
<path fill="#ad6532" d="
  M 1119.53 250.80
  A 0.20 0.19 13.3 0 1 1119.73 251.12
  L 717.98 652.86
  A 0.53 0.52 44.6 0 1 717.23 652.86
  L 502.11 437.74
  A 0.26 0.25 -31.3 0 1 502.22 437.32
  L 1119.53 250.80
  Z"
/>
<path fill="#ad6532" d="
  M 503.93 921.70
  A 0.20 0.19 13.3 0 1 503.73 921.38
  L 905.37 519.76
  A 0.53 0.52 44.6 0 1 906.12 519.76
  L 1121.18 734.82
  A 0.26 0.25 -31.3 0 1 1121.07 735.24
  L 503.93 921.70
  Z"
/>
<path fill="#ad6532" d="
  M 541.74 1272.70
  Q 566.62 1271.03 590.46 1279.84
  C 649.04 1301.48 674.73 1368.21 652.37 1424.82
  C 636.66 1464.60 600.24 1490.18 557.82 1493.33
  Q 557.25 1493.37 555.09 1493.52
  Q 530.21 1495.19 506.37 1486.38
  C 447.79 1464.74 422.10 1398.01 444.46 1341.40
  C 460.17 1301.62 496.59 1276.04 539.01 1272.89
  Q 539.58 1272.85 541.74 1272.70
  Z
  M 476.29 1386.57
  C 478.34 1428.01 509.83 1460.76 552.16 1458.66
  C 594.49 1456.56 622.59 1420.86 620.54 1379.42
  C 618.49 1337.97 586.99 1305.23 544.66 1307.33
  C 502.33 1309.42 474.23 1345.12 476.29 1386.57
  Z"
/>
<path fill="#ad6532" d="
  M 1086.27 1493.52
  Q 1061.38 1495.19 1037.55 1486.38
  C 978.97 1464.74 953.28 1398.01 975.64 1341.40
  C 991.35 1301.62 1027.77 1276.04 1070.19 1272.89
  Q 1070.76 1272.85 1072.91 1272.71
  Q 1097.80 1271.03 1121.63 1279.84
  C 1180.21 1301.48 1205.90 1368.21 1183.54 1424.82
  C 1167.83 1464.60 1131.41 1490.18 1088.99 1493.33
  Q 1088.42 1493.37 1086.27 1493.52
  Z
  M 1083.98 1458.55
  C 1122.73 1456.29 1149.61 1426.15 1151.68 1388.28
  C 1154.10 1343.99 1121.90 1304.65 1075.19 1307.37
  C 1028.48 1310.08 1001.06 1352.89 1008.60 1396.60
  C 1015.04 1433.98 1045.24 1460.80 1083.98 1458.55
  Z"
/>
<path fill="#ad6532" d="
  M 244.11 1432.05
  Q 244.19 1432.21 250.00 1436.89
  C 268.72 1451.97 290.26 1460.41 314.73 1459.48
  C 331.28 1458.86 349.15 1450.75 348.95 1431.98
  C 348.82 1419.93 341.95 1413.89 331.74 1409.27
  C 301.35 1395.53 241.79 1396.15 231.41 1352.49
  Q 228.64 1340.81 229.99 1327.93
  C 233.42 1295.26 262.24 1276.22 292.81 1273.53
  Q 305.12 1272.45 317.91 1273.85
  Q 352.85 1277.67 379.96 1299.71
  A 0.63 0.63 0.0 0 1 380.07 1300.57
  L 360.38 1328.32
  A 0.50 0.49 -53.5 0 1 359.68 1328.43
  C 344.51 1316.99 327.49 1308.79 308.55 1306.89
  Q 297.21 1305.75 286.84 1308.80
  C 274.26 1312.50 265.92 1322.35 267.58 1336.24
  C 268.74 1345.97 275.57 1351.54 284.17 1355.34
  C 297.38 1361.18 309.56 1363.79 325.98 1367.83
  Q 331.14 1369.09 343.22 1373.38
  C 366.78 1381.73 385.08 1396.92 386.59 1423.76
  C 389.19 1469.98 353.84 1492.95 311.83 1493.14
  Q 259.93 1493.38 221.16 1459.08
  A 0.38 0.38 0.0 0 1 221.12 1458.55
  L 243.49 1431.96
  A 0.37 0.37 0.0 0 1 244.11 1432.05
  Z"
/>
<path fill="#ad6532" d="
  M 1258.55 1431.97
  A 0.37 0.37 0.0 0 1 1259.17 1432.06
  Q 1259.25 1432.22 1265.06 1436.90
  C 1283.79 1451.98 1305.33 1460.41 1329.80 1459.48
  C 1346.34 1458.85 1364.21 1450.74 1364.01 1431.97
  C 1363.88 1419.92 1357.01 1413.88 1346.80 1409.27
  C 1316.40 1395.53 1256.85 1396.16 1246.46 1352.50
  Q 1243.69 1340.83 1245.03 1327.95
  C 1248.46 1295.28 1277.27 1276.23 1307.84 1273.54
  Q 1320.15 1272.45 1332.94 1273.85
  Q 1367.88 1277.67 1395.00 1299.70
  A 0.63 0.63 0.0 0 1 1395.11 1300.56
  L 1375.42 1328.31
  A 0.50 0.49 -53.5 0 1 1374.72 1328.42
  C 1359.55 1316.99 1342.53 1308.79 1323.59 1306.89
  Q 1312.25 1305.75 1301.88 1308.81
  C 1289.30 1312.51 1280.96 1322.36 1282.63 1336.25
  C 1283.79 1345.98 1290.62 1351.55 1299.22 1355.35
  C 1312.43 1361.18 1324.61 1363.79 1341.03 1367.83
  Q 1346.19 1369.09 1358.27 1373.37
  C 1381.83 1381.72 1400.13 1396.91 1401.65 1423.75
  C 1404.25 1469.96 1368.91 1492.94 1326.90 1493.14
  Q 1275.00 1493.39 1236.23 1459.09
  A 0.38 0.38 0.0 0 1 1236.19 1458.56
  L 1258.55 1431.97
  Z"
/>
<path fill="#ad6532" d="
  M 907.25 1276.57
  L 907.25 1489.67
  A 0.33 0.33 0.0 0 1 906.92 1490.00
  L 875.63 1490.00
  A 0.33 0.33 0.0 0 1 875.37 1489.87
  L 758.59 1339.19
  A 0.33 0.33 0.0 0 0 758.00 1339.39
  L 758.00 1489.67
  A 0.33 0.33 0.0 0 1 757.67 1490.00
  L 721.08 1490.00
  A 0.33 0.33 0.0 0 1 720.75 1489.67
  L 720.75 1276.57
  A 0.33 0.33 0.0 0 1 721.08 1276.24
  L 755.72 1276.24
  A 0.33 0.33 0.0 0 1 755.98 1276.37
  L 869.41 1422.73
  A 0.33 0.33 0.0 0 0 870.00 1422.53
  L 870.00 1276.57
  A 0.33 0.33 0.0 0 1 870.33 1276.24
  L 906.92 1276.24
  A 0.33 0.33 0.0 0 1 907.25 1276.57
  Z"
/>
<path fill="#ad6532" d="
  M 1287.50 1565.00
  L 1302.71 1565.00
  A 0.32 0.32 0.0 0 1 1303.00 1565.19
  L 1402.35 1780.05
  A 0.32 0.32 0.0 0 1 1402.06 1780.50
  L 1385.24 1780.50
  A 0.32 0.32 0.0 0 1 1384.95 1780.31
  L 1357.38 1720.69
  A 0.32 0.32 0.0 0 0 1357.09 1720.50
  L 1232.20 1720.50
  A 0.32 0.32 0.0 0 0 1231.91 1720.69
  L 1204.35 1780.31
  A 0.32 0.32 0.0 0 1 1204.06 1780.50
  L 1188.15 1780.50
  A 0.32 0.32 0.0 0 1 1187.86 1780.05
  L 1287.21 1565.19
  A 0.32 0.32 0.0 0 1 1287.50 1565.00
  Z
  M 1238.75 1705.41
  A 0.34 0.34 0.0 0 0 1239.06 1705.90
  L 1350.22 1706.09
  A 0.34 0.34 0.0 0 0 1350.53 1705.61
  L 1295.16 1583.51
  A 0.34 0.34 0.0 0 0 1294.54 1583.51
  L 1238.75 1705.41
  Z"
/>
<path fill="#ad6532" d="
  M 264.66 1765.52
  L 389.35 1765.52
  A 0.41 0.41 0.0 0 1 389.76 1765.93
  L 389.76 1780.09
  A 0.41 0.41 0.0 0 1 389.35 1780.50
  L 248.65 1780.50
  A 0.41 0.41 0.0 0 1 248.24 1780.09
  L 248.24 1566.91
  A 0.41 0.41 0.0 0 1 248.65 1566.50
  L 263.84 1566.50
  A 0.41 0.41 0.0 0 1 264.25 1566.91
  L 264.25 1765.11
  A 0.41 0.41 0.0 0 0 264.66 1765.52
  Z"
/>
<rect fill="#ad6532" x="500.24" y="1566.52" width="16.26" height="214.00" rx="0.50"/>
<path fill="#ad6532" d="
  M 765.42 1670.56
  C 788.25 1676.45 810.12 1690.34 812.31 1715.99
  C 815.89 1757.85 781.06 1778.39 744.19 1780.11
  C 725.29 1780.98 693.99 1780.51 643.30 1780.49
  A 0.30 0.30 0.0 0 1 643.00 1780.19
  L 643.00 1567.02
  A 0.52 0.52 0.0 0 1 643.52 1566.50
  Q 673.74 1566.46 736.74 1566.52
  Q 741.42 1566.53 750.91 1568.13
  C 762.79 1570.13 775.21 1574.99 784.19 1582.81
  Q 804.03 1600.09 800.04 1628.50
  C 797.25 1648.38 783.43 1662.91 765.39 1670.01
  A 0.29 0.29 0.0 0 0 765.42 1670.56
  Z
  M 659.77 1664.99
  Q 699.34 1665.02 730.59 1665.00
  C 758.53 1664.98 786.07 1650.67 784.14 1618.47
  Q 782.98 1598.98 765.91 1589.32
  Q 754.12 1582.65 739.75 1581.63
  Q 734.57 1581.27 732.50 1581.26
  Q 700.84 1581.24 659.34 1581.25
  A 0.34 0.34 0.0 0 0 659.00 1581.59
  L 659.00 1664.22
  A 0.77 0.77 0.0 0 0 659.77 1664.99
  Z
  M 659.00 1680.73
  L 659.00 1765.17
  A 0.32 0.32 0.0 0 0 659.32 1765.49
  Q 703.26 1765.53 736.69 1765.50
  C 760.96 1765.48 791.24 1756.77 795.61 1728.64
  C 801.52 1690.71 763.36 1680.08 734.75 1680.04
  Q 671.51 1679.94 659.72 1680.01
  A 0.72 0.72 0.0 0 0 659.00 1680.73
  Z"
/>
<path fill="#ad6532" d="
  M 1028.71 1689.06
  A 0.29 0.28 66.6 0 0 1028.53 1689.52
  L 1098.67 1780.02
  A 0.30 0.30 0.0 0 1 1098.43 1780.50
  L 1078.96 1780.50
  A 0.74 0.73 -18.8 0 1 1078.38 1780.22
  L 1010.03 1692.03
  A 0.73 0.72 70.5 0 0 1009.46 1691.75
  L 941.11 1691.75
  A 0.61 0.61 0.0 0 0 940.50 1692.36
  L 940.50 1779.92
  A 0.58 0.58 0.0 0 1 939.92 1780.50
  L 924.58 1780.50
  A 0.34 0.34 0.0 0 1 924.24 1780.16
  L 924.24 1566.94
  A 0.41 0.40 -90.0 0 1 924.64 1566.53
  Q 986.73 1566.40 1019.22 1566.59
  C 1038.23 1566.70 1060.33 1573.59 1074.09 1587.08
  C 1089.05 1601.75 1093.91 1623.38 1088.75 1643.78
  C 1081.63 1671.89 1055.53 1685.07 1028.71 1689.06
  Z
  M 940.50 1676.93
  A 0.33 0.32 0.0 0 0 940.83 1677.25
  Q 990.46 1677.21 1007.96 1677.27
  Q 1020.07 1677.31 1026.38 1676.30
  C 1048.55 1672.76 1069.45 1661.13 1073.73 1637.29
  C 1077.79 1614.66 1067.12 1594.54 1045.33 1586.65
  Q 1030.55 1581.29 1013.74 1581.27
  Q 976.50 1581.23 940.80 1581.26
  A 0.30 0.30 0.0 0 0 940.50 1581.56
  L 940.50 1676.93
  Z"
/>
</svg>
