<?xml version="1.0" encoding="UTF-8" standalone="no"?>
<!DOCTYPE svg PUBLIC "-//W3C//DTD SVG 1.1//EN" "http://www.w3.org/Graphics/SVG/1.1/DTD/svg11.dtd">
<svg xmlns="http://www.w3.org/2000/svg" version="1.1" viewBox="0.00 0.00 1536.00 1024.00">
<path fill="#000000" d="
  M 295.96 539.39
  A 0.70 0.69 -50.3 0 0 295.08 539.48
  L 272.14 562.42
  A 0.81 0.81 0.0 0 0 272.01 563.40
  C 279.25 576.04 274.48 591.36 261.64 597.86
  Q 261.60 597.88 258.27 599.22
  C 252.72 601.46 245.68 600.71 240.41 598.43
  Q 233.28 595.34 229.46 589.09
  Q 223.88 579.98 227.10 569.14
  Q 229.98 559.45 239.69 554.94
  Q 251.05 549.66 262.40 556.31
  A 0.90 0.90 0.0 0 0 263.48 556.17
  L 286.89 532.76
  A 0.97 0.96 -45.2 0 0 286.89 531.39
  Q 275.66 520.19 273.55 504.31
  A 1.31 1.31 0.0 0 0 272.25 503.17
  L 250.50 503.17
  A 0.82 0.82 0.0 0 0 249.72 503.74
  L 248.09 508.92
  A 3.19 3.04 70.2 0 1 247.83 509.51
  Q 240.85 521.76 227.58 523.10
  C 217.30 524.13 207.81 519.89 202.18 511.32
  Q 198.77 506.11 198.13 498.99
  C 196.55 481.19 214.21 466.46 231.61 471.26
  C 241.31 473.94 248.40 482.50 250.06 492.46
  A 0.73 0.72 85.3 0 0 250.77 493.07
  L 273.01 493.07
  A 0.84 0.83 1.4 0 0 273.85 492.28
  L 274.09 487.94
  A 0.99 0.61 65.4 0 1 274.12 487.70
  Q 279.89 464.59 300.40 454.02
  C 305.21 451.55 310.49 450.32 315.62 449.78
  A 0.86 0.85 -3.0 0 0 316.39 448.93
  L 316.39 391.74
  A 1.00 0.98 18.4 0 0 315.98 390.94
  Q 312.01 388.04 311.39 386.79
  Q 307.38 378.79 312.19 372.49
  C 316.86 366.37 327.72 365.84 332.57 372.16
  Q 336.25 376.96 334.85 382.85
  Q 333.40 388.93 326.64 391.40
  A 1.04 1.03 79.8 0 0 325.97 392.37
  L 325.97 448.97
  A 0.87 0.86 89.7 0 0 326.84 449.84
  Q 338.33 449.74 350.01 457.99
  A 0.38 0.36 -49.4 0 0 350.49 457.94
  L 382.40 426.28
  A 2.62 2.61 -20.5 0 0 383.16 424.62
  Q 383.17 424.49 382.59 424.05
  C 382.03 423.64 381.71 422.11 381.24 420.90
  A 4.34 4.20 -60.7 0 1 381.00 419.99
  Q 379.36 407.67 389.98 401.43
  Q 390.77 400.97 394.30 400.01
  Q 396.70 399.36 398.81 399.51
  C 407.92 400.16 414.51 406.24 415.56 415.54
  Q 415.80 417.66 415.23 420.27
  Q 413.31 429.01 404.72 432.73
  Q 397.66 435.78 390.64 432.09
  A 0.77 0.77 0.0 0 0 389.74 432.23
  L 358.30 463.66
  A 0.82 0.82 0.0 0 0 358.27 464.79
  Q 369.25 476.91 371.28 492.51
  A 0.63 0.61 86.3 0 0 371.89 493.06
  L 414.26 493.06
  A 1.23 1.23 0.0 0 0 415.39 492.32
  Q 419.48 483.08 428.08 481.37
  Q 433.82 480.23 439.57 483.28
  Q 445.14 486.23 447.34 491.99
  C 451.79 503.67 444.15 515.30 431.88 516.08
  C 424.01 516.58 417.63 511.25 414.93 503.75
  A 0.83 0.80 79.5 0 0 414.17 503.21
  L 371.81 503.21
  A 0.56 0.54 -85.7 0 0 371.27 503.69
  Q 369.14 518.89 358.96 530.26
  A 0.94 0.93 -46.6 0 0 358.99 531.54
  L 383.80 556.35
  A 0.61 0.61 0.0 0 0 384.52 556.46
  Q 396.87 549.77 407.66 556.26
  C 413.94 560.04 417.50 566.56 417.98 573.69
  C 418.53 581.80 414.28 589.09 407.34 593.20
  Q 401.04 596.93 393.00 596.00
  C 383.64 594.91 376.24 588.22 374.34 579.06
  C 373.45 574.76 373.79 568.03 376.80 564.34
  A 0.54 0.53 38.7 0 0 376.71 563.58
  Q 376.53 563.45 376.05 563.21
  Q 375.46 562.93 375.31 562.77
  Q 361.00 548.50 351.13 538.43
  A 1.13 1.13 0.0 0 0 349.61 538.34
  C 343.68 543.11 335.56 545.58 328.03 546.88
  A 1.52 1.52 0.0 0 0 326.77 548.38
  L 326.77 584.78
  A 0.73 0.72 -83.5 0 0 327.33 585.49
  C 339.03 588.08 346.69 598.02 346.06 610.06
  C 345.52 620.26 338.54 628.28 329.14 631.80
  A 2.32 2.24 33.9 0 1 328.35 631.94
  C 326.70 631.94 325.37 632.83 323.58 632.93
  Q 311.26 633.57 303.50 625.52
  Q 295.73 617.47 296.74 606.34
  Q 297.34 599.67 300.98 594.83
  C 304.38 590.33 309.44 586.33 315.05 585.67
  A 1.41 1.40 -3.5 0 0 316.29 584.28
  L 316.29 547.51
  A 0.70 0.70 0.0 0 0 315.77 546.83
  C 313.72 546.30 311.18 546.07 308.88 545.41
  Q 302.11 543.48 295.96 539.39
  Z
  M 294.9533 498.5657
  A 27.01 26.20 -179.1 0 0 321.5485 525.1868
  A 27.01 26.20 -179.1 0 0 348.9667 499.4143
  A 27.01 26.20 -179.1 0 0 322.3715 472.7932
  A 27.01 26.20 -179.1 0 0 294.9533 498.5657
  Z"
/>
<path fill="#000000" d="
  M 535.15 482.72
  L 472.32 378.48
  A 0.30 0.30 0.0 0 1 472.58 378.03
  L 520.70 378.03
  A 0.30 0.30 0.0 0 1 520.96 378.18
  L 563.08 449.26
  A 0.30 0.30 0.0 0 0 563.56 449.31
  L 628.81 378.10
  A 0.30 0.30 0.0 0 1 629.03 378.00
  L 677.12 378.00
  A 0.30 0.30 0.0 0 1 677.34 378.50
  L 583.61 479.14
  A 0.30 0.30 0.0 0 0 583.58 479.50
  L 660.25 606.70
  A 0.30 0.30 0.0 0 1 659.99 607.15
  L 614.20 607.15
  A 0.30 0.30 0.0 0 1 613.94 607.01
  L 554.44 510.93
  A 0.30 0.30 0.0 0 0 553.96 510.88
  L 465.88 607.02
  A 0.30 0.30 0.0 0 1 465.66 607.12
  L 420.28 607.12
  A 0.30 0.30 0.0 0 1 420.06 606.62
  L 535.12 483.08
  A 0.30 0.30 0.0 0 0 535.15 482.72
  Z"
/>
<path fill="#000000" d="
  M 693.16 414.48
  C 700.83 397.79 715.12 385.97 732.61 381.03
  Q 735.22 380.30 736.88 380.07
  Q 739.66 379.70 740.62 379.28
  A 2.61 2.57 -56.2 0 1 741.64 379.07
  C 745.86 379.06 751.18 378.05 755.98 378.05
  Q 802.91 378.01 863.53 378.04
  C 867.08 378.04 869.43 378.46 873.25 378.95
  Q 880.77 379.92 887.53 382.98
  Q 901.24 389.18 907.33 402.08
  Q 910.26 408.29 910.80 414.91
  Q 911.40 422.30 910.87 428.27
  Q 910.67 430.54 908.94 441.00
  Q 899.37 498.96 890.42 553.46
  Q 888.52 565.02 883.87 573.63
  Q 870.64 598.11 844.31 605.03
  Q 841.00 605.91 839.89 605.98
  C 837.72 606.13 836.33 606.84 833.94 607.01
  Q 827.10 607.50 812.26 607.53
  Q 740.63 607.69 710.03 607.40
  Q 698.96 607.29 687.95 602.08
  Q 672.73 594.87 668.38 578.67
  Q 667.80 576.50 667.28 569.58
  Q 666.98 565.61 667.75 560.47
  Q 671.50 535.42 671.52 535.30
  Q 672.40 530.07 679.53 484.78
  Q 680.12 480.99 680.09 480.71
  A 2.88 2.81 -37.1 0 1 680.29 479.39
  C 681.12 477.40 681.01 475.02 681.41 472.63
  Q 684.93 451.10 687.45 434.19
  Q 687.76 432.07 690.02 423.00
  Q 690.93 419.32 693.16 414.48
  Z
  M 833.04 572.00
  C 843.64 572.00 851.27 564.97 853.11 554.77
  Q 854.64 546.33 855.06 543.51
  Q 857.02 530.38 860.46 509.70
  Q 866.44 473.65 872.61 434.69
  C 873.69 427.84 873.78 420.37 866.62 417.12
  Q 862.13 415.08 858.46 415.07
  Q 848.32 415.04 754.45 414.98
  Q 742.62 414.97 738.72 416.43
  Q 730.99 419.33 726.77 426.53
  Q 724.69 430.07 723.08 439.93
  Q 719.16 463.94 713.56 498.83
  Q 708.39 531.03 705.23 549.18
  Q 703.93 556.66 703.92 557.37
  C 703.81 564.08 705.74 569.82 713.12 571.14
  A 2.83 2.24 51.7 0 1 713.50 571.23
  Q 715.90 571.97 717.00 571.98
  Q 733.17 572.05 833.04 572.00
  Z"
/>
<path fill="#000000" d="
  M 1066.56 606.60
  Q 1070.10 585.13 1077.91 536.24
  Q 1078.97 529.61 1079.07 529.14
  Q 1079.80 525.56 1080.22 522.04
  Q 1080.78 517.42 1081.38 513.77
  Q 1082.90 504.63 1084.53 495.49
  Q 1085.30 491.21 1086.09 485.18
  Q 1086.28 483.73 1086.77 482.01
  C 1087.14 480.67 1086.91 479.07 1087.26 477.67
  Q 1087.66 476.06 1088.54 470.51
  Q 1091.33 452.96 1094.18 435.74
  Q 1095.44 428.13 1094.46 424.82
  Q 1092.79 419.19 1087.33 416.77
  C 1085.86 416.12 1083.85 415.82 1081.68 415.32
  A 12.12 11.97 51.1 0 0 1079.01 415.02
  Q 1013.39 415.07 1005.17 414.96
  Q 995.28 414.82 990.66 416.59
  Q 982.81 419.59 979.18 427.67
  Q 977.45 431.52 976.50 437.26
  Q 970.50 473.46 951.46 587.98
  Q 949.77 598.12 948.66 606.41
  A 0.94 0.94 0.0 0 1 947.73 607.22
  L 912.72 607.22
  A 0.47 0.47 0.0 0 1 912.26 606.68
  Q 918.01 570.31 919.47 561.45
  Q 920.94 552.49 921.46 548.94
  Q 922.96 538.59 929.94 496.74
  Q 935.74 462.02 937.87 447.74
  Q 938.87 441.01 938.96 440.52
  Q 939.33 438.63 940.26 433.33
  Q 941.88 424.07 945.95 415.24
  C 954.58 396.50 969.37 385.56 989.16 380.48
  Q 993.14 379.46 1000.69 378.57
  Q 1005.17 378.04 1012.35 378.04
  Q 1066.96 378.00 1088.37 378.06
  A 15.35 14.52 48.8 0 1 1091.14 378.32
  C 1094.33 378.91 1097.23 378.90 1100.36 379.71
  Q 1106.20 381.23 1111.98 384.10
  Q 1121.54 388.85 1126.96 397.95
  Q 1134.06 409.86 1132.89 425.52
  Q 1132.57 429.88 1130.38 443.04
  Q 1108.01 577.38 1107.53 580.10
  Q 1105.56 591.41 1103.79 603.78
  Q 1103.67 604.59 1102.92 606.80
  A 0.70 0.69 -80.7 0 1 1102.26 607.28
  L 1067.13 607.28
  A 0.58 0.58 0.0 0 1 1066.56 606.60
  Z"
/>
<path fill="#000000" d="
  M 1298.57 572.04
  A 0.24 0.24 0.0 0 1 1298.78 572.41
  L 1278.17 606.65
  A 1.80 1.79 15.3 0 1 1276.63 607.52
  Q 1200.05 607.63 1183.75 607.55
  Q 1177.18 607.52 1169.32 606.65
  Q 1158.39 605.43 1148.87 598.82
  Q 1139.02 591.98 1135.48 579.99
  Q 1133.05 571.78 1134.26 562.24
  Q 1134.62 559.40 1141.15 520.02
  Q 1145.42 494.25 1147.44 481.57
  Q 1153.47 443.63 1154.02 439.75
  Q 1154.96 433.08 1156.13 428.03
  Q 1158.97 415.72 1166.33 404.57
  C 1175.19 391.14 1189.50 383.23 1204.97 379.85
  Q 1208.93 378.98 1212.85 378.88
  C 1216.24 378.79 1219.74 378.10 1223.40 378.09
  Q 1282.12 377.91 1326.00 378.15
  Q 1328.90 378.17 1336.07 379.85
  Q 1342.05 381.25 1345.71 382.95
  Q 1365.53 392.13 1368.87 414.96
  Q 1369.24 417.53 1369.10 424.31
  Q 1369.02 428.26 1368.16 433.59
  Q 1365.24 451.56 1363.89 458.93
  Q 1359.58 482.48 1342.23 497.07
  Q 1333.80 504.17 1322.53 507.77
  Q 1312.12 511.10 1300.26 511.10
  Q 1250.15 511.09 1195.09 511.06
  A 0.13 0.13 0.0 0 1 1194.98 510.87
  L 1215.37 476.51
  A 0.90 0.89 -74.7 0 1 1216.14 476.07
  Q 1223.15 476.05 1302.98 476.07
  Q 1308.29 476.07 1311.44 475.30
  C 1320.56 473.05 1325.14 467.72 1326.90 458.77
  Q 1331.38 435.95 1331.79 428.75
  Q 1332.40 417.90 1321.94 415.79
  Q 1318.06 415.01 1315.50 415.02
  Q 1304.11 415.08 1211.48 415.03
  A 2.30 2.26 31.4 0 0 1210.46 415.27
  Q 1208.96 416.05 1207.57 416.02
  A 2.68 2.66 34.4 0 0 1206.53 416.21
  Q 1193.36 421.49 1191.14 434.92
  Q 1176.15 525.67 1171.92 550.00
  C 1170.46 558.36 1169.27 567.37 1178.25 570.66
  C 1180.60 571.53 1184.31 572.03 1187.30 572.03
  Q 1249.98 572.02 1298.57 572.04
  Z"
/>
<path fill="#000000" d="
  M 1351.2738 589.3177
  A 19.06 18.41 -4.4 0 1 1333.6824 609.1357
  A 19.06 18.41 -4.4 0 1 1313.2662 592.2423
  A 19.06 18.41 -4.4 0 1 1330.8576 572.4243
  A 19.06 18.41 -4.4 0 1 1351.2738 589.3177
  Z
  M 1343.3596 580.9765
  A 14.78 14.52 -41.5 0 0 1322.6688 579.8952
  A 14.78 14.52 -41.5 0 0 1321.2204 600.5635
  A 14.78 14.52 -41.5 0 0 1341.9112 601.6448
  A 14.78 14.52 -41.5 0 0 1343.3596 580.9765
  Z"
/>
<path fill="#000000" d="
  M 1325.87 580.95
  A 1.04 1.03 4.5 0 1 1327.07 579.93
  Q 1329.61 580.34 1333.51 580.06
  C 1337.70 579.76 1341.71 582.17 1341.72 586.66
  Q 1341.72 589.43 1339.08 591.34
  A 0.90 0.90 0.0 0 0 1338.91 592.64
  Q 1341.48 595.78 1341.25 600.16
  A 1.17 1.17 0.0 0 1 1340.08 601.27
  L 1338.20 601.27
  A 1.13 1.13 0.0 0 1 1337.07 600.05
  Q 1337.34 596.67 1334.48 594.30
  A 1.52 1.51 -24.9 0 0 1333.51 593.95
  L 1330.55 593.95
  A 0.77 0.77 0.0 0 0 1329.78 594.72
  L 1329.78 600.98
  A 0.90 0.90 0.0 0 1 1328.88 601.88
  L 1327.16 601.88
  A 1.29 1.29 0.0 0 1 1325.87 600.59
  L 1325.87 580.95
  Z
  M 1329.89 583.49
  L 1329.81 590.13
  A 0.27 0.27 0.0 0 0 1330.08 590.41
  L 1333.38 590.45
  A 4.03 3.13 0.7 0 0 1337.44 587.37
  L 1337.46 586.45
  A 4.03 3.13 0.7 0 0 1333.46 583.27
  L 1330.16 583.23
  A 0.27 0.27 0.0 0 0 1329.89 583.49
  Z"
/>
</svg>
